<svg width="346" height="245" viewBox="0 0 346 245" fill="none" xmlns="http://www.w3.org/2000/svg">
<rect x="3" width="343" height="245" rx="16" fill="white"/>
<path d="M135.501 18.974C135.856 19.03 136.178 19.1747 136.467 19.408C136.766 19.6413 136.999 19.9307 137.167 20.276C137.345 20.6213 137.433 20.99 137.433 21.382C137.433 21.8767 137.307 22.3247 137.055 22.726C136.803 23.118 136.435 23.4307 135.949 23.664C135.473 23.888 134.909 24 134.255 24H130.615V14.242H134.115C134.778 14.242 135.343 14.354 135.809 14.578C136.276 14.7927 136.626 15.0867 136.859 15.46C137.093 15.8333 137.209 16.2533 137.209 16.72C137.209 17.2987 137.051 17.7793 136.733 18.162C136.425 18.5353 136.015 18.806 135.501 18.974ZM131.889 18.456H134.031C134.629 18.456 135.091 18.316 135.417 18.036C135.744 17.756 135.907 17.3687 135.907 16.874C135.907 16.3793 135.744 15.992 135.417 15.712C135.091 15.432 134.619 15.292 134.003 15.292H131.889V18.456ZM134.143 22.95C134.778 22.95 135.273 22.8007 135.627 22.502C135.982 22.2033 136.159 21.788 136.159 21.256C136.159 20.7147 135.973 20.29 135.599 19.982C135.226 19.6647 134.727 19.506 134.101 19.506H131.889V22.95H134.143ZM142.057 24.126C141.469 24.126 140.942 24.028 140.475 23.832C140.009 23.6267 139.64 23.3467 139.369 22.992C139.099 22.628 138.949 22.2127 138.921 21.746H140.237C140.275 22.1287 140.452 22.4413 140.769 22.684C141.096 22.9267 141.521 23.048 142.043 23.048C142.529 23.048 142.911 22.9407 143.191 22.726C143.471 22.5113 143.611 22.2407 143.611 21.914C143.611 21.578 143.462 21.3307 143.163 21.172C142.865 21.004 142.403 20.8407 141.777 20.682C141.208 20.5327 140.741 20.3833 140.377 20.234C140.023 20.0753 139.715 19.8467 139.453 19.548C139.201 19.24 139.075 18.8387 139.075 18.344C139.075 17.952 139.192 17.5927 139.425 17.266C139.659 16.9393 139.99 16.6827 140.419 16.496C140.849 16.3 141.339 16.202 141.889 16.202C142.739 16.202 143.425 16.4167 143.947 16.846C144.47 17.2753 144.75 17.8633 144.787 18.61H143.513C143.485 18.2087 143.322 17.8867 143.023 17.644C142.734 17.4013 142.342 17.28 141.847 17.28C141.39 17.28 141.026 17.378 140.755 17.574C140.485 17.77 140.349 18.0267 140.349 18.344C140.349 18.596 140.429 18.806 140.587 18.974C140.755 19.1327 140.961 19.2633 141.203 19.366C141.455 19.4593 141.801 19.5667 142.239 19.688C142.79 19.8373 143.238 19.9867 143.583 20.136C143.929 20.276 144.223 20.4907 144.465 20.78C144.717 21.0693 144.848 21.4473 144.857 21.914C144.857 22.334 144.741 22.712 144.507 23.048C144.274 23.384 143.943 23.65 143.513 23.846C143.093 24.0327 142.608 24.126 142.057 24.126ZM156.022 16.188C156.619 16.188 157.151 16.314 157.618 16.566C158.084 16.8087 158.453 17.1773 158.724 17.672C158.994 18.1667 159.13 18.7687 159.13 19.478V24H157.87V19.66C157.87 18.8947 157.678 18.3113 157.296 17.91C156.922 17.4993 156.414 17.294 155.77 17.294C155.107 17.294 154.58 17.5087 154.188 17.938C153.796 18.358 153.6 18.9693 153.6 19.772V24H152.34V19.66C152.34 18.8947 152.148 18.3113 151.766 17.91C151.392 17.4993 150.884 17.294 150.24 17.294C149.577 17.294 149.05 17.5087 148.658 17.938C148.266 18.358 148.07 18.9693 148.07 19.772V24H146.796V16.328H148.07V17.434C148.322 17.0327 148.658 16.7247 149.078 16.51C149.507 16.2953 149.978 16.188 150.492 16.188C151.136 16.188 151.705 16.3327 152.2 16.622C152.694 16.9113 153.063 17.336 153.306 17.896C153.52 17.3547 153.875 16.9347 154.37 16.636C154.864 16.3373 155.415 16.188 156.022 16.188ZM160.884 20.136C160.884 19.352 161.042 18.666 161.36 18.078C161.677 17.4807 162.111 17.0187 162.662 16.692C163.222 16.3653 163.842 16.202 164.524 16.202C165.196 16.202 165.779 16.3467 166.274 16.636C166.768 16.9253 167.137 17.2893 167.38 17.728V16.328H168.668V24H167.38V22.572C167.128 23.02 166.75 23.3933 166.246 23.692C165.751 23.9813 165.172 24.126 164.51 24.126C163.828 24.126 163.212 23.958 162.662 23.622C162.111 23.286 161.677 22.8147 161.36 22.208C161.042 21.6013 160.884 20.9107 160.884 20.136ZM167.38 20.15C167.38 19.5713 167.263 19.0673 167.03 18.638C166.796 18.2087 166.479 17.882 166.078 17.658C165.686 17.4247 165.252 17.308 164.776 17.308C164.3 17.308 163.866 17.42 163.474 17.644C163.082 17.868 162.769 18.1947 162.536 18.624C162.302 19.0533 162.186 19.5573 162.186 20.136C162.186 20.724 162.302 21.2373 162.536 21.676C162.769 22.1053 163.082 22.4367 163.474 22.67C163.866 22.894 164.3 23.006 164.776 23.006C165.252 23.006 165.686 22.894 166.078 22.67C166.479 22.4367 166.796 22.1053 167.03 21.676C167.263 21.2373 167.38 20.7287 167.38 20.15ZM172.234 17.574C172.458 17.1353 172.776 16.7947 173.186 16.552C173.606 16.3093 174.115 16.188 174.712 16.188V17.504H174.376C172.948 17.504 172.234 18.2787 172.234 19.828V24H170.96V16.328H172.234V17.574ZM177.877 17.378V21.9C177.877 22.2733 177.956 22.5393 178.115 22.698C178.274 22.8473 178.549 22.922 178.941 22.922H179.879V24H178.731C178.022 24 177.49 23.8367 177.135 23.51C176.78 23.1833 176.603 22.6467 176.603 21.9V17.378H175.609V16.328H176.603V14.396H177.877V16.328H179.879V17.378H177.877ZM188.151 24.126C187.563 24.126 187.036 24.028 186.569 23.832C186.102 23.6267 185.734 23.3467 185.463 22.992C185.192 22.628 185.043 22.2127 185.015 21.746H186.331C186.368 22.1287 186.546 22.4413 186.863 22.684C187.19 22.9267 187.614 23.048 188.137 23.048C188.622 23.048 189.005 22.9407 189.285 22.726C189.565 22.5113 189.705 22.2407 189.705 21.914C189.705 21.578 189.556 21.3307 189.257 21.172C188.958 21.004 188.496 20.8407 187.871 20.682C187.302 20.5327 186.835 20.3833 186.471 20.234C186.116 20.0753 185.808 19.8467 185.547 19.548C185.295 19.24 185.169 18.8387 185.169 18.344C185.169 17.952 185.286 17.5927 185.519 17.266C185.752 16.9393 186.084 16.6827 186.513 16.496C186.942 16.3 187.432 16.202 187.983 16.202C188.832 16.202 189.518 16.4167 190.041 16.846C190.564 17.2753 190.844 17.8633 190.881 18.61H189.607C189.579 18.2087 189.416 17.8867 189.117 17.644C188.828 17.4013 188.436 17.28 187.941 17.28C187.484 17.28 187.12 17.378 186.849 17.574C186.578 17.77 186.443 18.0267 186.443 18.344C186.443 18.596 186.522 18.806 186.681 18.974C186.849 19.1327 187.054 19.2633 187.297 19.366C187.549 19.4593 187.894 19.5667 188.333 19.688C188.884 19.8373 189.332 19.9867 189.677 20.136C190.022 20.276 190.316 20.4907 190.559 20.78C190.811 21.0693 190.942 21.4473 190.951 21.914C190.951 22.334 190.834 22.712 190.601 23.048C190.368 23.384 190.036 23.65 189.607 23.846C189.187 24.0327 188.702 24.126 188.151 24.126ZM196.698 16.188C197.276 16.188 197.799 16.314 198.266 16.566C198.732 16.8087 199.096 17.1773 199.358 17.672C199.628 18.1667 199.764 18.7687 199.764 19.478V24H198.504V19.66C198.504 18.8947 198.312 18.3113 197.93 17.91C197.547 17.4993 197.024 17.294 196.362 17.294C195.69 17.294 195.153 17.504 194.752 17.924C194.36 18.344 194.164 18.9553 194.164 19.758V24H192.89V13.64H194.164V17.42C194.416 17.028 194.761 16.7247 195.2 16.51C195.648 16.2953 196.147 16.188 196.698 16.188ZM205.331 24.126C204.612 24.126 203.959 23.9627 203.371 23.636C202.792 23.3093 202.335 22.8473 201.999 22.25C201.672 21.6433 201.509 20.9433 201.509 20.15C201.509 19.366 201.677 18.6753 202.013 18.078C202.358 17.4713 202.825 17.0093 203.413 16.692C204.001 16.3653 204.659 16.202 205.387 16.202C206.115 16.202 206.773 16.3653 207.361 16.692C207.949 17.0093 208.411 17.4667 208.747 18.064C209.092 18.6613 209.265 19.3567 209.265 20.15C209.265 20.9433 209.087 21.6433 208.733 22.25C208.387 22.8473 207.916 23.3093 207.319 23.636C206.721 23.9627 206.059 24.126 205.331 24.126ZM205.331 23.006C205.788 23.006 206.217 22.8987 206.619 22.684C207.02 22.4693 207.342 22.1473 207.585 21.718C207.837 21.2887 207.963 20.766 207.963 20.15C207.963 19.534 207.841 19.0113 207.599 18.582C207.356 18.1527 207.039 17.8353 206.647 17.63C206.255 17.4153 205.83 17.308 205.373 17.308C204.906 17.308 204.477 17.4153 204.085 17.63C203.702 17.8353 203.394 18.1527 203.161 18.582C202.927 19.0113 202.811 19.534 202.811 20.15C202.811 20.7753 202.923 21.3027 203.147 21.732C203.38 22.1613 203.688 22.4833 204.071 22.698C204.453 22.9033 204.873 23.006 205.331 23.006ZM212.354 17.742C212.606 17.3033 212.979 16.9393 213.474 16.65C213.978 16.3513 214.561 16.202 215.224 16.202C215.905 16.202 216.521 16.3653 217.072 16.692C217.632 17.0187 218.07 17.4807 218.388 18.078C218.705 18.666 218.864 19.352 218.864 20.136C218.864 20.9107 218.705 21.6013 218.388 22.208C218.07 22.8147 217.632 23.286 217.072 23.622C216.521 23.958 215.905 24.126 215.224 24.126C214.57 24.126 213.992 23.9813 213.488 23.692C212.993 23.3933 212.615 23.0247 212.354 22.586V27.64H211.08V16.328H212.354V17.742ZM217.562 20.136C217.562 19.5573 217.445 19.0533 217.212 18.624C216.978 18.1947 216.661 17.868 216.26 17.644C215.868 17.42 215.434 17.308 214.958 17.308C214.491 17.308 214.057 17.4247 213.656 17.658C213.264 17.882 212.946 18.2133 212.704 18.652C212.47 19.0813 212.354 19.5807 212.354 20.15C212.354 20.7287 212.47 21.2373 212.704 21.676C212.946 22.1053 213.264 22.4367 213.656 22.67C214.057 22.894 214.491 23.006 214.958 23.006C215.434 23.006 215.868 22.894 216.26 22.67C216.661 22.4367 216.978 22.1053 217.212 21.676C217.445 21.2373 217.562 20.724 217.562 20.136Z" fill="#181818"/>
<rect x="39" y="119" width="52" height="79" rx="10" fill="#0F936F"/>
<path d="M41.0341 213.32V212.324H43.2901V221H42.1861V213.32H41.0341ZM49.6971 214.568V217.244H53.1891V214.568H54.2451V221H53.1891V218.132H49.6971V221H48.6411V214.568H49.6971ZM58.7657 214.448C59.3177 214.448 59.7897 214.568 60.1817 214.808C60.5817 215.048 60.8857 215.388 61.0937 215.828C61.3097 216.26 61.4177 216.768 61.4177 217.352V217.988H57.0137C57.0297 218.716 57.2137 219.272 57.5657 219.656C57.9257 220.032 58.4257 220.22 59.0657 220.22C59.4737 220.22 59.8337 220.184 60.1457 220.112C60.4657 220.032 60.7937 219.92 61.1297 219.776V220.7C60.8017 220.844 60.4777 220.948 60.1577 221.012C59.8377 221.084 59.4577 221.12 59.0177 221.12C58.4097 221.12 57.8697 220.996 57.3977 220.748C56.9337 220.5 56.5697 220.132 56.3057 219.644C56.0497 219.148 55.9217 218.544 55.9217 217.832C55.9217 217.128 56.0377 216.524 56.2697 216.02C56.5097 215.516 56.8417 215.128 57.2657 214.856C57.6977 214.584 58.1977 214.448 58.7657 214.448ZM58.7537 215.312C58.2497 215.312 57.8497 215.476 57.5537 215.804C57.2657 216.124 57.0937 216.572 57.0377 217.148H60.3137C60.3137 216.78 60.2577 216.46 60.1457 216.188C60.0337 215.916 59.8617 215.704 59.6297 215.552C59.4057 215.392 59.1137 215.312 58.7537 215.312ZM67.8312 214.568V220.112H68.7672V223.232H67.7472V221H63.2712V223.232H62.2632V220.112H62.7792C63.1472 219.6 63.4512 219.044 63.6912 218.444C63.9392 217.836 64.1232 217.204 64.2432 216.548C64.3712 215.884 64.4392 215.224 64.4472 214.568H67.8312ZM65.3832 215.396C65.3512 215.94 65.2672 216.504 65.1312 217.088C64.9952 217.664 64.8192 218.216 64.6032 218.744C64.3952 219.272 64.1512 219.728 63.8712 220.112H66.8112V215.396H65.3832ZM72.5118 214.448C73.0638 214.448 73.5358 214.568 73.9278 214.808C74.3278 215.048 74.6318 215.388 74.8398 215.828C75.0558 216.26 75.1638 216.768 75.1638 217.352V217.988H70.7598C70.7758 218.716 70.9598 219.272 71.3118 219.656C71.6718 220.032 72.1718 220.22 72.8118 220.22C73.2198 220.22 73.5798 220.184 73.8918 220.112C74.2118 220.032 74.5398 219.92 74.8758 219.776V220.7C74.5478 220.844 74.2238 220.948 73.9038 221.012C73.5838 221.084 73.2038 221.12 72.7638 221.12C72.1558 221.12 71.6158 220.996 71.1438 220.748C70.6798 220.5 70.3158 220.132 70.0518 219.644C69.7958 219.148 69.6678 218.544 69.6678 217.832C69.6678 217.128 69.7838 216.524 70.0158 216.02C70.2558 215.516 70.5878 215.128 71.0118 214.856C71.4438 214.584 71.9438 214.448 72.5118 214.448ZM72.4998 215.312C71.9958 215.312 71.5958 215.476 71.2998 215.804C71.0118 216.124 70.8398 216.572 70.7838 217.148H74.0598C74.0598 216.78 74.0038 216.46 73.8918 216.188C73.7798 215.916 73.6078 215.704 73.3758 215.552C73.1518 215.392 72.8598 215.312 72.4998 215.312ZM81.6973 221H80.6293V215.444H78.7333C78.6533 216.46 78.5533 217.328 78.4333 218.048C78.3133 218.76 78.1613 219.34 77.9773 219.788C77.7933 220.236 77.5733 220.564 77.3173 220.772C77.0613 220.98 76.7613 221.084 76.4173 221.084C76.3133 221.084 76.2093 221.076 76.1053 221.06C76.0093 221.052 75.9293 221.032 75.8653 221V220.208C75.9133 220.224 75.9653 220.236 76.0213 220.244C76.0773 220.252 76.1333 220.256 76.1893 220.256C76.3653 220.256 76.5253 220.184 76.6693 220.04C76.8133 219.896 76.9413 219.676 77.0533 219.38C77.1733 219.084 77.2813 218.712 77.3773 218.264C77.4733 217.808 77.5573 217.272 77.6293 216.656C77.7013 216.04 77.7653 215.344 77.8213 214.568H81.6973V221ZM84.1348 221H82.9108L84.7468 218.3C84.4988 218.236 84.2588 218.136 84.0268 218C83.7948 217.856 83.6068 217.66 83.4628 217.412C83.3188 217.156 83.2468 216.84 83.2468 216.464C83.2468 215.848 83.4548 215.38 83.8708 215.06C84.2868 214.732 84.8388 214.568 85.5268 214.568H88.4068V221H87.3508V218.444H85.7908L84.1348 221ZM84.2668 216.476C84.2668 216.844 84.4028 217.12 84.6748 217.304C84.9548 217.48 85.3428 217.568 85.8388 217.568H87.3508V215.444H85.6348C85.1468 215.444 84.7948 215.54 84.5788 215.732C84.3708 215.924 84.2668 216.172 84.2668 216.476Z" fill="#181818"/>
<rect x="111.5" y="77" width="53" height="121" rx="10" fill="#F5F7FA"/>
<path d="M112.661 220.124C113.677 219.308 114.473 218.64 115.049 218.12C115.625 217.592 116.109 217.044 116.501 216.476C116.901 215.9 117.101 215.336 117.101 214.784C117.101 214.264 116.973 213.856 116.717 213.56C116.469 213.256 116.065 213.104 115.505 213.104C114.961 213.104 114.537 213.276 114.233 213.62C113.937 213.956 113.777 214.408 113.753 214.976H112.697C112.729 214.08 113.001 213.388 113.513 212.9C114.025 212.412 114.685 212.168 115.493 212.168C116.317 212.168 116.969 212.396 117.449 212.852C117.937 213.308 118.181 213.936 118.181 214.736C118.181 215.4 117.981 216.048 117.581 216.68C117.189 217.304 116.741 217.856 116.237 218.336C115.733 218.808 115.089 219.36 114.305 219.992H118.433V220.904H112.661V220.124ZM124.226 214.568V217.244H127.718V214.568H128.774V221H127.718V218.132H124.226V221H123.17V214.568H124.226ZM133.295 214.448C133.847 214.448 134.319 214.568 134.711 214.808C135.111 215.048 135.415 215.388 135.623 215.828C135.839 216.26 135.947 216.768 135.947 217.352V217.988H131.543C131.559 218.716 131.743 219.272 132.095 219.656C132.455 220.032 132.955 220.22 133.595 220.22C134.003 220.22 134.363 220.184 134.675 220.112C134.995 220.032 135.323 219.92 135.659 219.776V220.7C135.331 220.844 135.007 220.948 134.687 221.012C134.367 221.084 133.987 221.12 133.547 221.12C132.939 221.12 132.399 220.996 131.927 220.748C131.463 220.5 131.099 220.132 130.835 219.644C130.579 219.148 130.451 218.544 130.451 217.832C130.451 217.128 130.567 216.524 130.799 216.02C131.039 215.516 131.371 215.128 131.795 214.856C132.227 214.584 132.727 214.448 133.295 214.448ZM133.283 215.312C132.779 215.312 132.379 215.476 132.083 215.804C131.795 216.124 131.623 216.572 131.567 217.148H134.843C134.843 216.78 134.787 216.46 134.675 216.188C134.563 215.916 134.391 215.704 134.159 215.552C133.935 215.392 133.643 215.312 133.283 215.312ZM142.36 214.568V220.112H143.296V223.232H142.276V221H137.8V223.232H136.792V220.112H137.308C137.676 219.6 137.98 219.044 138.22 218.444C138.468 217.836 138.652 217.204 138.772 216.548C138.9 215.884 138.968 215.224 138.976 214.568H142.36ZM139.912 215.396C139.88 215.94 139.796 216.504 139.66 217.088C139.524 217.664 139.348 218.216 139.132 218.744C138.924 219.272 138.68 219.728 138.4 220.112H141.34V215.396H139.912ZM147.041 214.448C147.593 214.448 148.065 214.568 148.457 214.808C148.857 215.048 149.161 215.388 149.369 215.828C149.585 216.26 149.693 216.768 149.693 217.352V217.988H145.289C145.305 218.716 145.489 219.272 145.841 219.656C146.201 220.032 146.701 220.22 147.341 220.22C147.749 220.22 148.109 220.184 148.421 220.112C148.741 220.032 149.069 219.92 149.405 219.776V220.7C149.077 220.844 148.753 220.948 148.433 221.012C148.113 221.084 147.733 221.12 147.293 221.12C146.685 221.12 146.145 220.996 145.673 220.748C145.209 220.5 144.845 220.132 144.581 219.644C144.325 219.148 144.197 218.544 144.197 217.832C144.197 217.128 144.313 216.524 144.545 216.02C144.785 215.516 145.117 215.128 145.541 214.856C145.973 214.584 146.473 214.448 147.041 214.448ZM147.029 215.312C146.525 215.312 146.125 215.476 145.829 215.804C145.541 216.124 145.369 216.572 145.313 217.148H148.589C148.589 216.78 148.533 216.46 148.421 216.188C148.309 215.916 148.137 215.704 147.905 215.552C147.681 215.392 147.389 215.312 147.029 215.312ZM156.227 221H155.159V215.444H153.263C153.183 216.46 153.083 217.328 152.963 218.048C152.843 218.76 152.691 219.34 152.507 219.788C152.323 220.236 152.103 220.564 151.847 220.772C151.591 220.98 151.291 221.084 150.947 221.084C150.843 221.084 150.739 221.076 150.635 221.06C150.539 221.052 150.459 221.032 150.395 221V220.208C150.443 220.224 150.495 220.236 150.551 220.244C150.607 220.252 150.663 220.256 150.719 220.256C150.895 220.256 151.055 220.184 151.199 220.04C151.343 219.896 151.471 219.676 151.583 219.38C151.703 219.084 151.811 218.712 151.907 218.264C152.003 217.808 152.087 217.272 152.159 216.656C152.231 216.04 152.295 215.344 152.351 214.568H156.227V221ZM158.664 221H157.44L159.276 218.3C159.028 218.236 158.788 218.136 158.556 218C158.324 217.856 158.136 217.66 157.992 217.412C157.848 217.156 157.776 216.84 157.776 216.464C157.776 215.848 157.984 215.38 158.4 215.06C158.816 214.732 159.368 214.568 160.056 214.568H162.936V221H161.88V218.444H160.32L158.664 221ZM158.796 216.476C158.796 216.844 158.932 217.12 159.204 217.304C159.484 217.48 159.872 217.568 160.368 217.568H161.88V215.444H160.164C159.676 215.444 159.324 215.54 159.108 215.732C158.9 215.924 158.796 216.172 158.796 216.476Z" fill="#CFCFCF"/>
<rect x="184.5" y="81" width="53" height="117" rx="10" fill="#F5F7FA"/>
<path d="M185.687 214.508C185.743 213.772 186.027 213.196 186.539 212.78C187.051 212.364 187.715 212.156 188.531 212.156C189.075 212.156 189.543 212.256 189.935 212.456C190.335 212.648 190.635 212.912 190.835 213.248C191.043 213.584 191.147 213.964 191.147 214.388C191.147 214.884 191.003 215.312 190.715 215.672C190.435 216.032 190.067 216.264 189.611 216.368V216.428C190.131 216.556 190.543 216.808 190.847 217.184C191.151 217.56 191.303 218.052 191.303 218.66C191.303 219.116 191.199 219.528 190.991 219.896C190.783 220.256 190.471 220.54 190.055 220.748C189.639 220.956 189.139 221.06 188.555 221.06C187.707 221.06 187.011 220.84 186.467 220.4C185.923 219.952 185.619 219.32 185.555 218.504H186.611C186.667 218.984 186.863 219.376 187.199 219.68C187.535 219.984 187.983 220.136 188.543 220.136C189.103 220.136 189.527 219.992 189.815 219.704C190.111 219.408 190.259 219.028 190.259 218.564C190.259 217.964 190.059 217.532 189.659 217.268C189.259 217.004 188.655 216.872 187.847 216.872H187.571V215.96H187.859C188.595 215.952 189.151 215.832 189.527 215.6C189.903 215.36 190.091 214.992 190.091 214.496C190.091 214.072 189.951 213.732 189.671 213.476C189.399 213.22 189.007 213.092 188.495 213.092C187.999 213.092 187.599 213.22 187.295 213.476C186.991 213.732 186.811 214.076 186.755 214.508H185.687ZM197.308 214.568V217.244H200.8V214.568H201.856V221H200.8V218.132H197.308V221H196.252V214.568H197.308ZM206.377 214.448C206.929 214.448 207.401 214.568 207.793 214.808C208.193 215.048 208.497 215.388 208.705 215.828C208.921 216.26 209.029 216.768 209.029 217.352V217.988H204.625C204.641 218.716 204.825 219.272 205.177 219.656C205.537 220.032 206.037 220.22 206.677 220.22C207.085 220.22 207.445 220.184 207.757 220.112C208.077 220.032 208.405 219.92 208.741 219.776V220.7C208.413 220.844 208.089 220.948 207.769 221.012C207.449 221.084 207.069 221.12 206.629 221.12C206.021 221.12 205.481 220.996 205.009 220.748C204.545 220.5 204.181 220.132 203.917 219.644C203.661 219.148 203.533 218.544 203.533 217.832C203.533 217.128 203.649 216.524 203.881 216.02C204.121 215.516 204.453 215.128 204.877 214.856C205.309 214.584 205.809 214.448 206.377 214.448ZM206.365 215.312C205.861 215.312 205.461 215.476 205.165 215.804C204.877 216.124 204.705 216.572 204.649 217.148H207.925C207.925 216.78 207.869 216.46 207.757 216.188C207.645 215.916 207.473 215.704 207.241 215.552C207.017 215.392 206.725 215.312 206.365 215.312ZM215.442 214.568V220.112H216.378V223.232H215.358V221H210.882V223.232H209.874V220.112H210.39C210.758 219.6 211.062 219.044 211.302 218.444C211.55 217.836 211.734 217.204 211.854 216.548C211.982 215.884 212.05 215.224 212.058 214.568H215.442ZM212.994 215.396C212.962 215.94 212.878 216.504 212.742 217.088C212.606 217.664 212.43 218.216 212.214 218.744C212.006 219.272 211.762 219.728 211.482 220.112H214.422V215.396H212.994ZM220.123 214.448C220.675 214.448 221.147 214.568 221.539 214.808C221.939 215.048 222.243 215.388 222.451 215.828C222.667 216.26 222.775 216.768 222.775 217.352V217.988H218.371C218.387 218.716 218.571 219.272 218.923 219.656C219.283 220.032 219.783 220.22 220.423 220.22C220.831 220.22 221.191 220.184 221.503 220.112C221.823 220.032 222.151 219.92 222.487 219.776V220.7C222.159 220.844 221.835 220.948 221.515 221.012C221.195 221.084 220.815 221.12 220.375 221.12C219.767 221.12 219.227 220.996 218.755 220.748C218.291 220.5 217.927 220.132 217.663 219.644C217.407 219.148 217.279 218.544 217.279 217.832C217.279 217.128 217.395 216.524 217.627 216.02C217.867 215.516 218.199 215.128 218.623 214.856C219.055 214.584 219.555 214.448 220.123 214.448ZM220.111 215.312C219.607 215.312 219.207 215.476 218.911 215.804C218.623 216.124 218.451 216.572 218.395 217.148H221.671C221.671 216.78 221.615 216.46 221.503 216.188C221.391 215.916 221.219 215.704 220.987 215.552C220.763 215.392 220.471 215.312 220.111 215.312ZM229.309 221H228.241V215.444H226.345C226.265 216.46 226.165 217.328 226.045 218.048C225.925 218.76 225.773 219.34 225.589 219.788C225.405 220.236 225.185 220.564 224.929 220.772C224.673 220.98 224.373 221.084 224.029 221.084C223.925 221.084 223.821 221.076 223.717 221.06C223.621 221.052 223.541 221.032 223.477 221V220.208C223.525 220.224 223.577 220.236 223.633 220.244C223.689 220.252 223.745 220.256 223.801 220.256C223.977 220.256 224.137 220.184 224.281 220.04C224.425 219.896 224.553 219.676 224.665 219.38C224.785 219.084 224.893 218.712 224.989 218.264C225.085 217.808 225.169 217.272 225.241 216.656C225.313 216.04 225.377 215.344 225.433 214.568H229.309V221ZM231.746 221H230.522L232.358 218.3C232.11 218.236 231.87 218.136 231.638 218C231.406 217.856 231.218 217.66 231.074 217.412C230.93 217.156 230.858 216.84 230.858 216.464C230.858 215.848 231.066 215.38 231.482 215.06C231.898 214.732 232.45 214.568 233.138 214.568H236.018V221H234.962V218.444H233.402L231.746 221ZM231.878 216.476C231.878 216.844 232.014 217.12 232.286 217.304C232.566 217.48 232.954 217.568 233.45 217.568H234.962V215.444H233.246C232.758 215.444 232.406 215.54 232.19 215.732C231.982 215.924 231.878 216.172 231.878 216.476Z" fill="#CFCFCF"/>
<rect x="257.5" y="45.392" width="53" height="152.608" rx="10" fill="#F5F7FA"/>
<path d="M258.207 219.068V218.24L262.419 212.408H263.727V218.12H264.927V219.068H263.727V221H262.647V219.068H258.207ZM262.695 213.548L259.467 218.12H262.695V213.548ZM270.549 214.568V217.244H274.041V214.568H275.097V221H274.041V218.132H270.549V221H269.493V214.568H270.549ZM279.617 214.448C280.169 214.448 280.641 214.568 281.033 214.808C281.433 215.048 281.737 215.388 281.945 215.828C282.161 216.26 282.269 216.768 282.269 217.352V217.988H277.865C277.881 218.716 278.065 219.272 278.417 219.656C278.777 220.032 279.277 220.22 279.917 220.22C280.325 220.22 280.685 220.184 280.997 220.112C281.317 220.032 281.645 219.92 281.981 219.776V220.7C281.653 220.844 281.329 220.948 281.009 221.012C280.689 221.084 280.309 221.12 279.869 221.12C279.261 221.12 278.721 220.996 278.249 220.748C277.785 220.5 277.421 220.132 277.157 219.644C276.901 219.148 276.773 218.544 276.773 217.832C276.773 217.128 276.889 216.524 277.121 216.02C277.361 215.516 277.693 215.128 278.117 214.856C278.549 214.584 279.049 214.448 279.617 214.448ZM279.605 215.312C279.101 215.312 278.701 215.476 278.405 215.804C278.117 216.124 277.945 216.572 277.889 217.148H281.165C281.165 216.78 281.109 216.46 280.997 216.188C280.885 215.916 280.713 215.704 280.481 215.552C280.257 215.392 279.965 215.312 279.605 215.312ZM288.683 214.568V220.112H289.619V223.232H288.599V221H284.123V223.232H283.115V220.112H283.631C283.999 219.6 284.303 219.044 284.543 218.444C284.791 217.836 284.975 217.204 285.095 216.548C285.223 215.884 285.291 215.224 285.299 214.568H288.683ZM286.235 215.396C286.203 215.94 286.119 216.504 285.983 217.088C285.847 217.664 285.671 218.216 285.455 218.744C285.247 219.272 285.003 219.728 284.723 220.112H287.663V215.396H286.235ZM293.363 214.448C293.915 214.448 294.387 214.568 294.779 214.808C295.179 215.048 295.483 215.388 295.691 215.828C295.907 216.26 296.015 216.768 296.015 217.352V217.988H291.611C291.627 218.716 291.811 219.272 292.163 219.656C292.523 220.032 293.023 220.22 293.663 220.22C294.071 220.22 294.431 220.184 294.743 220.112C295.063 220.032 295.391 219.92 295.727 219.776V220.7C295.399 220.844 295.075 220.948 294.755 221.012C294.435 221.084 294.055 221.12 293.615 221.12C293.007 221.12 292.467 220.996 291.995 220.748C291.531 220.5 291.167 220.132 290.903 219.644C290.647 219.148 290.519 218.544 290.519 217.832C290.519 217.128 290.635 216.524 290.867 216.02C291.107 215.516 291.439 215.128 291.863 214.856C292.295 214.584 292.795 214.448 293.363 214.448ZM293.351 215.312C292.847 215.312 292.447 215.476 292.151 215.804C291.863 216.124 291.691 216.572 291.635 217.148H294.911C294.911 216.78 294.855 216.46 294.743 216.188C294.631 215.916 294.459 215.704 294.227 215.552C294.003 215.392 293.711 215.312 293.351 215.312ZM302.549 221H301.481V215.444H299.585C299.505 216.46 299.405 217.328 299.285 218.048C299.165 218.76 299.013 219.34 298.829 219.788C298.645 220.236 298.425 220.564 298.169 220.772C297.913 220.98 297.613 221.084 297.269 221.084C297.165 221.084 297.061 221.076 296.957 221.06C296.861 221.052 296.781 221.032 296.717 221V220.208C296.765 220.224 296.817 220.236 296.873 220.244C296.929 220.252 296.985 220.256 297.041 220.256C297.217 220.256 297.377 220.184 297.521 220.04C297.665 219.896 297.793 219.676 297.905 219.38C298.025 219.084 298.133 218.712 298.229 218.264C298.325 217.808 298.409 217.272 298.481 216.656C298.553 216.04 298.617 215.344 298.673 214.568H302.549V221ZM304.986 221H303.762L305.598 218.3C305.35 218.236 305.11 218.136 304.878 218C304.646 217.856 304.458 217.66 304.314 217.412C304.17 217.156 304.098 216.84 304.098 216.464C304.098 215.848 304.306 215.38 304.722 215.06C305.138 214.732 305.69 214.568 306.378 214.568H309.258V221H308.202V218.444H306.642L304.986 221ZM305.118 216.476C305.118 216.844 305.254 217.12 305.526 217.304C305.806 217.48 306.194 217.568 306.69 217.568H308.202V215.444H306.486C305.998 215.444 305.646 215.54 305.43 215.732C305.222 215.924 305.118 216.172 305.118 216.476Z" fill="#CFCFCF"/>
<g filter="url(#filter0_d_34_15558)">
<g filter="url(#filter1_d_34_15558)">
<path fill-rule="evenodd" clip-rule="evenodd" d="M31 44C24.3726 44 19 49.3726 19 56V97.9112C19 104.539 24.3726 109.911 31 109.911H98C104.627 109.911 110 104.539 110 97.9112V56C110 49.3726 104.627 44 98 44H31ZM67.6894 110.177C66.5179 113.915 61.2268 113.915 60.0553 110.177L60 110H67.7447L67.6894 110.177Z" fill="white"/>
</g>
<path d="M33.4295 55.572C33.4295 54.196 33.6535 53.124 34.1015 52.356C34.5495 51.58 35.3335 51.192 36.4535 51.192C37.5655 51.192 38.3455 51.58 38.7935 52.356C39.2415 53.124 39.4655 54.196 39.4655 55.572C39.4655 56.972 39.2415 58.06 38.7935 58.836C38.3455 59.612 37.5655 60 36.4535 60C35.3335 60 34.5495 59.612 34.1015 58.836C33.6535 58.06 33.4295 56.972 33.4295 55.572ZM38.3855 55.572C38.3855 54.876 38.3375 54.288 38.2415 53.808C38.1535 53.32 37.9655 52.928 37.6775 52.632C37.3975 52.336 36.9895 52.188 36.4535 52.188C35.9095 52.188 35.4935 52.336 35.2055 52.632C34.9255 52.928 34.7375 53.32 34.6415 53.808C34.5535 54.288 34.5095 54.876 34.5095 55.572C34.5095 56.292 34.5535 56.896 34.6415 57.384C34.7375 57.872 34.9255 58.264 35.2055 58.56C35.4935 58.856 35.9095 59.004 36.4535 59.004C36.9895 59.004 37.3975 58.856 37.6775 58.56C37.9655 58.264 38.1535 57.872 38.2415 57.384C38.3375 56.896 38.3855 56.292 38.3855 55.572ZM40.6767 52.32V51.324H42.9327V60H41.8287V52.32H40.6767ZM45.3365 60.072C45.1285 60.072 44.9525 60 44.8085 59.856C44.6645 59.712 44.5925 59.536 44.5925 59.328C44.5925 59.12 44.6645 58.944 44.8085 58.8C44.9525 58.656 45.1285 58.584 45.3365 58.584C45.5365 58.584 45.7045 58.656 45.8405 58.8C45.9845 58.944 46.0565 59.12 46.0565 59.328C46.0565 59.536 45.9845 59.712 45.8405 59.856C45.7045 60 45.5365 60.072 45.3365 60.072ZM47.328 55.572C47.328 54.196 47.552 53.124 48 52.356C48.448 51.58 49.232 51.192 50.352 51.192C51.464 51.192 52.244 51.58 52.692 52.356C53.14 53.124 53.364 54.196 53.364 55.572C53.364 56.972 53.14 58.06 52.692 58.836C52.244 59.612 51.464 60 50.352 60C49.232 60 48.448 59.612 48 58.836C47.552 58.06 47.328 56.972 47.328 55.572ZM52.284 55.572C52.284 54.876 52.236 54.288 52.14 53.808C52.052 53.32 51.864 52.928 51.576 52.632C51.296 52.336 50.888 52.188 50.352 52.188C49.808 52.188 49.392 52.336 49.104 52.632C48.824 52.928 48.636 53.32 48.54 53.808C48.452 54.288 48.408 54.876 48.408 55.572C48.408 56.292 48.452 56.896 48.54 57.384C48.636 57.872 48.824 58.264 49.104 58.56C49.392 58.856 49.808 59.004 50.352 59.004C50.888 59.004 51.296 58.856 51.576 58.56C51.864 58.264 52.052 57.872 52.14 57.384C52.236 56.896 52.284 56.292 52.284 55.572ZM56.4471 55.488C55.9991 55.312 55.6551 55.056 55.4151 54.72C55.1751 54.384 55.0551 53.976 55.0551 53.496C55.0551 53.064 55.1631 52.676 55.3791 52.332C55.5951 51.98 55.9151 51.704 56.3391 51.504C56.7711 51.296 57.2911 51.192 57.8991 51.192C58.5071 51.192 59.0231 51.296 59.4471 51.504C59.8791 51.704 60.2031 51.98 60.4191 52.332C60.6431 52.676 60.7551 53.064 60.7551 53.496C60.7551 53.96 60.6311 54.368 60.3831 54.72C60.1351 55.064 59.7951 55.32 59.3631 55.488C59.8591 55.64 60.2511 55.908 60.5391 56.292C60.8351 56.668 60.9831 57.124 60.9831 57.66C60.9831 58.18 60.8551 58.636 60.5991 59.028C60.3431 59.412 59.9791 59.712 59.5071 59.928C59.0431 60.136 58.5071 60.24 57.8991 60.24C57.2911 60.24 56.7551 60.136 56.2911 59.928C55.8351 59.712 55.4791 59.412 55.2231 59.028C54.9671 58.636 54.8391 58.18 54.8391 57.66C54.8391 57.124 54.9831 56.664 55.2711 56.28C55.5591 55.896 55.9511 55.632 56.4471 55.488ZM59.6991 53.628C59.6991 53.14 59.5391 52.764 59.2191 52.5C58.8991 52.236 58.4591 52.104 57.8991 52.104C57.3471 52.104 56.9111 52.236 56.5911 52.5C56.2711 52.764 56.1111 53.144 56.1111 53.64C56.1111 54.088 56.2751 54.448 56.6031 54.72C56.9391 54.992 57.3711 55.128 57.8991 55.128C58.4351 55.128 58.8671 54.992 59.1951 54.72C59.5311 54.44 59.6991 54.076 59.6991 53.628ZM57.8991 55.968C57.3071 55.968 56.8231 56.108 56.4471 56.388C56.0711 56.66 55.8831 57.072 55.8831 57.624C55.8831 58.136 56.0631 58.548 56.4231 58.86C56.7911 59.172 57.2831 59.328 57.8991 59.328C58.5151 59.328 59.0031 59.172 59.3631 58.86C59.7231 58.548 59.9031 58.136 59.9031 57.624C59.9031 57.088 59.7191 56.68 59.3511 56.4C58.9831 56.112 58.4991 55.968 57.8991 55.968ZM67.1735 55.14V56.064H62.3855V55.14H67.1735ZM68.7548 52.32V51.324H71.0108V60H69.9068V52.32H68.7548ZM72.6226 58.068V57.24L76.8346 51.408H78.1426V57.12H79.3426V58.068H78.1426V60H77.0626V58.068H72.6226ZM77.1106 52.548L73.8826 57.12H77.1106V52.548ZM80.9615 60.072C80.7535 60.072 80.5775 60 80.4335 59.856C80.2895 59.712 80.2175 59.536 80.2175 59.328C80.2175 59.12 80.2895 58.944 80.4335 58.8C80.5775 58.656 80.7535 58.584 80.9615 58.584C81.1615 58.584 81.3295 58.656 81.4655 58.8C81.6095 58.944 81.6815 59.12 81.6815 59.328C81.6815 59.536 81.6095 59.712 81.4655 59.856C81.3295 60 81.1615 60.072 80.9615 60.072ZM82.953 55.572C82.953 54.196 83.177 53.124 83.625 52.356C84.073 51.58 84.857 51.192 85.977 51.192C87.089 51.192 87.869 51.58 88.317 52.356C88.765 53.124 88.989 54.196 88.989 55.572C88.989 56.972 88.765 58.06 88.317 58.836C87.869 59.612 87.089 60 85.977 60C84.857 60 84.073 59.612 83.625 58.836C83.177 58.06 82.953 56.972 82.953 55.572ZM87.909 55.572C87.909 54.876 87.861 54.288 87.765 53.808C87.677 53.32 87.489 52.928 87.201 52.632C86.921 52.336 86.513 52.188 85.977 52.188C85.433 52.188 85.017 52.336 84.729 52.632C84.449 52.928 84.261 53.32 84.165 53.808C84.077 54.288 84.033 54.876 84.033 55.572C84.033 56.292 84.077 56.896 84.165 57.384C84.261 57.872 84.449 58.264 84.729 58.56C85.017 58.856 85.433 59.004 85.977 59.004C86.513 59.004 86.921 58.856 87.201 58.56C87.489 58.264 87.677 57.872 87.765 57.384C87.861 56.896 87.909 56.292 87.909 55.572ZM92.0721 55.488C91.6241 55.312 91.2801 55.056 91.0401 54.72C90.8001 54.384 90.6801 53.976 90.6801 53.496C90.6801 53.064 90.7881 52.676 91.0041 52.332C91.2201 51.98 91.5401 51.704 91.9641 51.504C92.3961 51.296 92.9161 51.192 93.5241 51.192C94.1321 51.192 94.6481 51.296 95.0721 51.504C95.5041 51.704 95.8281 51.98 96.0441 52.332C96.2681 52.676 96.3801 53.064 96.3801 53.496C96.3801 53.96 96.2561 54.368 96.0081 54.72C95.7601 55.064 95.4201 55.32 94.9881 55.488C95.4841 55.64 95.8761 55.908 96.1641 56.292C96.4601 56.668 96.6081 57.124 96.6081 57.66C96.6081 58.18 96.4801 58.636 96.2241 59.028C95.9681 59.412 95.6041 59.712 95.1321 59.928C94.6681 60.136 94.1321 60.24 93.5241 60.24C92.9161 60.24 92.3801 60.136 91.9161 59.928C91.4601 59.712 91.1041 59.412 90.8481 59.028C90.5921 58.636 90.4641 58.18 90.4641 57.66C90.4641 57.124 90.6081 56.664 90.8961 56.28C91.1841 55.896 91.5761 55.632 92.0721 55.488ZM95.3241 53.628C95.3241 53.14 95.1641 52.764 94.8441 52.5C94.5241 52.236 94.0841 52.104 93.5241 52.104C92.9721 52.104 92.5361 52.236 92.2161 52.5C91.8961 52.764 91.7361 53.144 91.7361 53.64C91.7361 54.088 91.9001 54.448 92.2281 54.72C92.5641 54.992 92.9961 55.128 93.5241 55.128C94.0601 55.128 94.4921 54.992 94.8201 54.72C95.1561 54.44 95.3241 54.076 95.3241 53.628ZM93.5241 55.968C92.9321 55.968 92.4481 56.108 92.0721 56.388C91.6961 56.66 91.5081 57.072 91.5081 57.624C91.5081 58.136 91.6881 58.548 92.0481 58.86C92.4161 59.172 92.9081 59.328 93.5241 59.328C94.1401 59.328 94.6281 59.172 94.9881 58.86C95.3481 58.548 95.5281 58.136 95.5281 57.624C95.5281 57.088 95.3441 56.68 94.9761 56.4C94.6081 56.112 94.1241 55.968 93.5241 55.968Z" fill="#4F4F4F"/>
<line x1="104.5" y1="64.5" x2="25.5" y2="64.5" stroke="#CFCFCF" stroke-linecap="round"/>
<path d="M40.8192 79.4515C40.0178 82.6658 36.7621 84.6218 33.5474 83.8204C30.3343 83.0191 28.3781 79.7633 29.1796 76.5492C29.9806 73.3345 33.2362 71.3782 36.4499 72.1795C39.6644 72.9809 41.6204 76.237 40.819 79.4515H40.8192Z" fill="#0F936F"/>
<path d="M46.1626 82V73.432H52.5946V82H51.5266V74.38H47.2426V82H46.1626ZM57.8559 75.448C58.6479 75.448 59.2839 75.724 59.7639 76.276C60.2519 76.828 60.4959 77.66 60.4959 78.772C60.4959 79.5 60.3839 80.116 60.1599 80.62C59.9439 81.116 59.6359 81.492 59.2359 81.748C58.8439 81.996 58.3799 82.12 57.8439 82.12C57.5159 82.12 57.2239 82.076 56.9679 81.988C56.7119 81.9 56.4919 81.788 56.3079 81.652C56.1319 81.508 55.9799 81.352 55.8519 81.184H55.7799C55.7959 81.32 55.8119 81.492 55.8279 81.7C55.8439 81.908 55.8519 82.088 55.8519 82.24V84.88H54.7959V75.568H55.6599L55.8039 76.444H55.8519C55.9799 76.26 56.1319 76.092 56.3079 75.94C56.4919 75.788 56.7079 75.668 56.9559 75.58C57.2119 75.492 57.5119 75.448 57.8559 75.448ZM57.6639 76.336C57.2319 76.336 56.8839 76.42 56.6199 76.588C56.3559 76.748 56.1639 76.992 56.0439 77.32C55.9239 77.648 55.8599 78.064 55.8519 78.568V78.772C55.8519 79.3 55.9079 79.748 56.0199 80.116C56.1319 80.484 56.3199 80.764 56.5839 80.956C56.8559 81.148 57.2239 81.244 57.6879 81.244C58.0799 81.244 58.3999 81.136 58.6479 80.92C58.9039 80.704 59.0919 80.412 59.2119 80.044C59.3399 79.668 59.4039 79.24 59.4039 78.76C59.4039 78.024 59.2599 77.436 58.9719 76.996C58.6919 76.556 58.2559 76.336 57.6639 76.336ZM63.1748 79.492C63.1748 79.564 63.1708 79.668 63.1628 79.804C63.1628 79.932 63.1588 80.072 63.1508 80.224C63.1428 80.368 63.1348 80.508 63.1268 80.644C63.1188 80.772 63.1108 80.876 63.1028 80.956L66.5468 75.568H67.8428V82H66.8588V78.208C66.8588 78.08 66.8588 77.912 66.8588 77.704C66.8668 77.496 66.8748 77.292 66.8828 77.092C66.8908 76.884 66.8988 76.728 66.9068 76.624L63.4868 82H62.1788V75.568H63.1748V79.492ZM69.5537 78.136C69.5537 77.2 69.6457 76.404 69.8297 75.748C70.0217 75.084 70.3137 74.556 70.7057 74.164C71.1057 73.764 71.6177 73.496 72.2417 73.36C72.7617 73.248 73.2697 73.148 73.7657 73.06C74.2617 72.972 74.7257 72.892 75.1577 72.82L75.3377 73.744C75.1297 73.776 74.8977 73.816 74.6417 73.864C74.3857 73.904 74.1257 73.948 73.8617 73.996C73.5977 74.036 73.3417 74.08 73.0937 74.128C72.8537 74.168 72.6417 74.208 72.4577 74.248C72.1937 74.304 71.9577 74.4 71.7497 74.536C71.5417 74.664 71.3617 74.84 71.2097 75.064C71.0657 75.288 70.9497 75.564 70.8617 75.892C70.7737 76.22 70.7217 76.608 70.7057 77.056H70.7777C70.8897 76.904 71.0417 76.748 71.2337 76.588C71.4337 76.428 71.6697 76.292 71.9417 76.18C72.2217 76.068 72.5377 76.012 72.8897 76.012C73.4497 76.012 73.9137 76.136 74.2817 76.384C74.6577 76.624 74.9377 76.96 75.1217 77.392C75.3137 77.824 75.4097 78.328 75.4097 78.904C75.4097 79.616 75.2857 80.212 75.0377 80.692C74.7897 81.172 74.4457 81.532 74.0057 81.772C73.5657 82.004 73.0537 82.12 72.4697 82.12C72.0297 82.12 71.6297 82.036 71.2697 81.868C70.9097 81.692 70.6017 81.436 70.3457 81.1C70.0897 80.764 69.8937 80.348 69.7577 79.852C69.6217 79.356 69.5537 78.784 69.5537 78.136ZM72.5537 81.244C72.9057 81.244 73.2097 81.172 73.4657 81.028C73.7297 80.884 73.9337 80.648 74.0777 80.32C74.2217 79.992 74.2937 79.556 74.2937 79.012C74.2937 78.356 74.1697 77.84 73.9217 77.464C73.6817 77.08 73.2817 76.888 72.7217 76.888C72.3697 76.888 72.0497 76.968 71.7617 77.128C71.4737 77.28 71.2337 77.456 71.0417 77.656C70.8497 77.856 70.7137 78.024 70.6337 78.16C70.6337 78.552 70.6617 78.932 70.7177 79.3C70.7737 79.668 70.8697 80 71.0057 80.296C71.1497 80.584 71.3457 80.816 71.5937 80.992C71.8497 81.16 72.1697 81.244 72.5537 81.244ZM77.0733 82V75.568H78.1293V78.208H79.7973C80.3573 78.208 80.8173 78.276 81.1773 78.412C81.5373 78.548 81.8053 78.752 81.9813 79.024C82.1573 79.288 82.2453 79.624 82.2453 80.032C82.2453 80.432 82.1573 80.78 81.9813 81.076C81.8133 81.372 81.5453 81.6 81.1773 81.76C80.8173 81.92 80.3413 82 79.7493 82H77.0733ZM79.6533 81.148C80.1093 81.148 80.4813 81.072 80.7693 80.92C81.0573 80.76 81.2013 80.484 81.2013 80.092C81.2013 79.7 81.0693 79.436 80.8053 79.3C80.5413 79.156 80.1613 79.084 79.6653 79.084H78.1293V81.148H79.6533ZM83.3133 82V75.568H84.3693V82H83.3133ZM91.3091 82H90.2411V76.444H88.3451C88.2651 77.46 88.1651 78.328 88.0451 79.048C87.9251 79.76 87.7731 80.34 87.5891 80.788C87.4051 81.236 87.1851 81.564 86.9291 81.772C86.6731 81.98 86.3731 82.084 86.0291 82.084C85.9251 82.084 85.8211 82.076 85.7171 82.06C85.6211 82.052 85.5411 82.032 85.4771 82V81.208C85.5251 81.224 85.5771 81.236 85.6331 81.244C85.6891 81.252 85.7451 81.256 85.8011 81.256C85.9771 81.256 86.1371 81.184 86.2811 81.04C86.4251 80.896 86.5531 80.676 86.6651 80.38C86.7851 80.084 86.8931 79.712 86.9891 79.264C87.0851 78.808 87.1691 78.272 87.2411 77.656C87.3131 77.04 87.3771 76.344 87.4331 75.568H91.3091V82ZM96.3146 78.208C96.8746 78.208 97.3386 78.276 97.7066 78.412C98.0746 78.548 98.3506 78.752 98.5346 79.024C98.7266 79.288 98.8226 79.624 98.8226 80.032C98.8226 80.432 98.7306 80.78 98.5466 81.076C98.3706 81.372 98.0946 81.6 97.7186 81.76C97.3426 81.92 96.8586 82 96.2666 82H93.3506V75.568H94.4066V78.208H96.3146ZM97.7666 80.092C97.7666 79.7 97.6266 79.436 97.3466 79.3C97.0746 79.156 96.6906 79.084 96.1946 79.084H94.4066V81.148H96.2186C96.6666 81.148 97.0346 81.068 97.3226 80.908C97.6186 80.748 97.7666 80.476 97.7666 80.092Z" fill="#4F4F4F"/>
<path d="M38.332 99.104C39.1 98.464 39.712 97.932 40.168 97.508C40.624 97.076 41.004 96.628 41.308 96.164C41.612 95.7 41.764 95.244 41.764 94.796C41.764 94.388 41.668 94.068 41.476 93.836C41.284 93.604 40.988 93.488 40.588 93.488C40.188 93.488 39.88 93.624 39.664 93.896C39.448 94.16 39.336 94.524 39.328 94.988H37.696C37.728 94.028 38.012 93.3 38.548 92.804C39.092 92.308 39.78 92.06 40.612 92.06C41.524 92.06 42.224 92.304 42.712 92.792C43.2 93.272 43.444 93.908 43.444 94.7C43.444 95.324 43.276 95.92 42.94 96.488C42.604 97.056 42.22 97.552 41.788 97.976C41.356 98.392 40.792 98.896 40.096 99.488H43.636V100.88H37.708V99.632L38.332 99.104ZM46.7226 99.236L45.3186 102.608H44.2386L45.0186 99.236H46.7226ZM53.6215 93.704H49.7335V95.756C49.9015 95.548 50.1415 95.38 50.4535 95.252C50.7655 95.116 51.0975 95.048 51.4495 95.048C52.0895 95.048 52.6135 95.188 53.0215 95.468C53.4295 95.748 53.7255 96.108 53.9095 96.548C54.0935 96.98 54.1855 97.444 54.1855 97.94C54.1855 98.86 53.9215 99.6 53.3935 100.16C52.8735 100.72 52.1295 101 51.1615 101C50.2495 101 49.5215 100.772 48.9775 100.316C48.4335 99.86 48.1255 99.264 48.0535 98.528H49.6855C49.7575 98.848 49.9175 99.104 50.1655 99.296C50.4215 99.488 50.7455 99.584 51.1375 99.584C51.6095 99.584 51.9655 99.436 52.2055 99.14C52.4455 98.844 52.5655 98.452 52.5655 97.964C52.5655 97.468 52.4415 97.092 52.1935 96.836C51.9535 96.572 51.5975 96.44 51.1255 96.44C50.7895 96.44 50.5095 96.524 50.2855 96.692C50.0615 96.86 49.9015 97.084 49.8055 97.364H48.1975V92.228H53.6215V93.704ZM55.4641 96.512C55.4641 95.128 55.7121 94.044 56.2081 93.26C56.7121 92.476 57.5441 92.084 58.7041 92.084C59.8641 92.084 60.6921 92.476 61.1881 93.26C61.6921 94.044 61.9441 95.128 61.9441 96.512C61.9441 97.904 61.6921 98.996 61.1881 99.788C60.6921 100.58 59.8641 100.976 58.7041 100.976C57.5441 100.976 56.7121 100.58 56.2081 99.788C55.7121 98.996 55.4641 97.904 55.4641 96.512ZM60.2881 96.512C60.2881 95.92 60.2481 95.424 60.1681 95.024C60.0961 94.616 59.9441 94.284 59.7121 94.028C59.4881 93.772 59.1521 93.644 58.7041 93.644C58.2561 93.644 57.9161 93.772 57.6841 94.028C57.4601 94.284 57.3081 94.616 57.2281 95.024C57.1561 95.424 57.1201 95.92 57.1201 96.512C57.1201 97.12 57.1561 97.632 57.2281 98.048C57.3001 98.456 57.4521 98.788 57.6841 99.044C57.9161 99.292 58.2561 99.416 58.7041 99.416C59.1521 99.416 59.4921 99.292 59.7241 99.044C59.9561 98.788 60.1081 98.456 60.1801 98.048C60.2521 97.632 60.2881 97.12 60.2881 96.512ZM63.2219 96.512C63.2219 95.128 63.4699 94.044 63.9659 93.26C64.4699 92.476 65.3019 92.084 66.4619 92.084C67.6219 92.084 68.4499 92.476 68.9459 93.26C69.4499 94.044 69.7019 95.128 69.7019 96.512C69.7019 97.904 69.4499 98.996 68.9459 99.788C68.4499 100.58 67.6219 100.976 66.4619 100.976C65.3019 100.976 64.4699 100.58 63.9659 99.788C63.4699 98.996 63.2219 97.904 63.2219 96.512ZM68.0459 96.512C68.0459 95.92 68.0059 95.424 67.9259 95.024C67.8539 94.616 67.7019 94.284 67.4699 94.028C67.2459 93.772 66.9099 93.644 66.4619 93.644C66.0139 93.644 65.6739 93.772 65.4419 94.028C65.2179 94.284 65.0659 94.616 64.9859 95.024C64.9139 95.424 64.8779 95.92 64.8779 96.512C64.8779 97.12 64.9139 97.632 64.9859 98.048C65.0579 98.456 65.2099 98.788 65.4419 99.044C65.6739 99.292 66.0139 99.416 66.4619 99.416C66.9099 99.416 67.2499 99.292 67.4819 99.044C67.7139 98.788 67.8659 98.456 67.9379 98.048C68.0099 97.632 68.0459 97.12 68.0459 96.512ZM71.9158 101.084C71.6118 101.084 71.3598 100.992 71.1598 100.808C70.9678 100.616 70.8718 100.38 70.8718 100.1C70.8718 99.82 70.9678 99.588 71.1598 99.404C71.3598 99.212 71.6118 99.116 71.9158 99.116C72.2118 99.116 72.4558 99.212 72.6478 99.404C72.8398 99.588 72.9358 99.82 72.9358 100.1C72.9358 100.38 72.8398 100.616 72.6478 100.808C72.4558 100.992 72.2118 101.084 71.9158 101.084ZM74.0969 96.512C74.0969 95.128 74.3449 94.044 74.8409 93.26C75.3449 92.476 76.1769 92.084 77.3369 92.084C78.4969 92.084 79.3249 92.476 79.8209 93.26C80.3249 94.044 80.5769 95.128 80.5769 96.512C80.5769 97.904 80.3249 98.996 79.8209 99.788C79.3249 100.58 78.4969 100.976 77.3369 100.976C76.1769 100.976 75.3449 100.58 74.8409 99.788C74.3449 98.996 74.0969 97.904 74.0969 96.512ZM78.9209 96.512C78.9209 95.92 78.8809 95.424 78.8009 95.024C78.7289 94.616 78.5769 94.284 78.3449 94.028C78.1209 93.772 77.7849 93.644 77.3369 93.644C76.8889 93.644 76.5489 93.772 76.3169 94.028C76.0929 94.284 75.9409 94.616 75.8609 95.024C75.7889 95.424 75.7529 95.92 75.7529 96.512C75.7529 97.12 75.7889 97.632 75.8609 98.048C75.9329 98.456 76.0849 98.788 76.3169 99.044C76.5489 99.292 76.8889 99.416 77.3369 99.416C77.7849 99.416 78.1249 99.292 78.3569 99.044C78.5889 98.788 78.7409 98.456 78.8129 98.048C78.8849 97.632 78.9209 97.12 78.9209 96.512ZM81.8548 96.512C81.8548 95.128 82.1028 94.044 82.5988 93.26C83.1028 92.476 83.9348 92.084 85.0948 92.084C86.2548 92.084 87.0828 92.476 87.5788 93.26C88.0828 94.044 88.3348 95.128 88.3348 96.512C88.3348 97.904 88.0828 98.996 87.5788 99.788C87.0828 100.58 86.2548 100.976 85.0948 100.976C83.9348 100.976 83.1028 100.58 82.5988 99.788C82.1028 98.996 81.8548 97.904 81.8548 96.512ZM86.6788 96.512C86.6788 95.92 86.6388 95.424 86.5588 95.024C86.4868 94.616 86.3348 94.284 86.1028 94.028C85.8788 93.772 85.5428 93.644 85.0948 93.644C84.6468 93.644 84.3068 93.772 84.0748 94.028C83.8508 94.284 83.6988 94.616 83.6188 95.024C83.5468 95.424 83.5108 95.92 83.5108 96.512C83.5108 97.12 83.5468 97.632 83.6188 98.048C83.6908 98.456 83.8428 98.788 84.0748 99.044C84.3068 99.292 84.6468 99.416 85.0948 99.416C85.5428 99.416 85.8828 99.292 86.1148 99.044C86.3468 98.788 86.4988 98.456 86.5708 98.048C86.6428 97.632 86.6788 97.12 86.6788 96.512ZM95.4359 101.12C94.7879 101.12 94.2359 101.004 93.7799 100.772C93.3239 100.532 92.9759 100.164 92.7359 99.668C92.4959 99.172 92.3759 98.536 92.3759 97.76C92.3759 96.96 92.5119 96.308 92.7839 95.804C93.0559 95.3 93.4319 94.928 93.9119 94.688C94.3999 94.448 94.9599 94.328 95.5919 94.328C96.0399 94.328 96.4279 94.372 96.7559 94.46C97.0919 94.548 97.3839 94.652 97.6319 94.772L97.1039 96.152C96.8239 96.04 96.5599 95.948 96.3119 95.876C96.0719 95.804 95.8319 95.768 95.5919 95.768C95.2799 95.768 95.0199 95.844 94.8119 95.996C94.6039 96.14 94.4479 96.36 94.3439 96.656C94.2479 96.944 94.1999 97.308 94.1999 97.748C94.1999 98.18 94.2519 98.54 94.3559 98.828C94.4679 99.108 94.6279 99.32 94.8359 99.464C95.0439 99.6 95.2959 99.668 95.5919 99.668C95.9679 99.668 96.2999 99.62 96.5879 99.524C96.8759 99.42 97.1559 99.28 97.4279 99.104V100.628C97.1559 100.804 96.8679 100.928 96.5639 101C96.2679 101.08 95.8919 101.12 95.4359 101.12Z" fill="#181818"/>
<circle cx="65" cy="123" r="4" fill="white"/>
<circle cx="65" cy="123" r="3.5" stroke="#0F936F" stroke-opacity="0.5"/>
<g filter="url(#filter2_d_34_15558)">
<path d="M61.6718 117.008C63.2551 119.383 66.7449 119.383 68.3282 117.008L73 110H57L61.6718 117.008Z" fill="white"/>
</g>
</g>
<defs>
<filter id="filter0_d_34_15558" x="0" y="29" width="129" height="121" filterUnits="userSpaceOnUse" color-interpolation-filters="sRGB">
<feFlood flood-opacity="0" result="BackgroundImageFix"/>
<feColorMatrix in="SourceAlpha" type="matrix" values="0 0 0 0 0 0 0 0 0 0 0 0 0 0 0 0 0 0 127 0" result="hardAlpha"/>
<feOffset dy="4"/>
<feGaussianBlur stdDeviation="9.5"/>
<feComposite in2="hardAlpha" operator="out"/>
<feColorMatrix type="matrix" values="0 0 0 0 0.133333 0 0 0 0 0.133333 0 0 0 0 0.133333 0 0 0 0.07 0"/>
<feBlend mode="normal" in2="BackgroundImageFix" result="effect1_dropShadow_34_15558"/>
<feBlend mode="normal" in="SourceGraphic" in2="effect1_dropShadow_34_15558" result="shape"/>
</filter>
<filter id="filter1_d_34_15558" x="0" y="29" width="129" height="106.981" filterUnits="userSpaceOnUse" color-interpolation-filters="sRGB">
<feFlood flood-opacity="0" result="BackgroundImageFix"/>
<feColorMatrix in="SourceAlpha" type="matrix" values="0 0 0 0 0 0 0 0 0 0 0 0 0 0 0 0 0 0 127 0" result="hardAlpha"/>
<feOffset dy="4"/>
<feGaussianBlur stdDeviation="9.5"/>
<feComposite in2="hardAlpha" operator="out"/>
<feColorMatrix type="matrix" values="0 0 0 0 0.133333 0 0 0 0 0.133333 0 0 0 0 0.133333 0 0 0 0.07 0"/>
<feBlend mode="normal" in2="BackgroundImageFix" result="effect1_dropShadow_34_15558"/>
<feBlend mode="normal" in="SourceGraphic" in2="effect1_dropShadow_34_15558" result="shape"/>
</filter>
<filter id="filter2_d_34_15558" x="38" y="95" width="54" height="46.7889" filterUnits="userSpaceOnUse" color-interpolation-filters="sRGB">
<feFlood flood-opacity="0" result="BackgroundImageFix"/>
<feColorMatrix in="SourceAlpha" type="matrix" values="0 0 0 0 0 0 0 0 0 0 0 0 0 0 0 0 0 0 127 0" result="hardAlpha"/>
<feOffset dy="4"/>
<feGaussianBlur stdDeviation="9.5"/>
<feComposite in2="hardAlpha" operator="out"/>
<feColorMatrix type="matrix" values="0 0 0 0 0.133333 0 0 0 0 0.133333 0 0 0 0 0.133333 0 0 0 0.07 0"/>
<feBlend mode="normal" in2="BackgroundImageFix" result="effect1_dropShadow_34_15558"/>
<feBlend mode="normal" in="SourceGraphic" in2="effect1_dropShadow_34_15558" result="shape"/>
</filter>
</defs>
</svg>
