<svg width="343" height="66" viewBox="0 0 343 66" fill="none" xmlns="http://www.w3.org/2000/svg">
<rect width="78" height="66" rx="8" fill="white"/>
<path d="M14.2948 20.4V18.336H18.1508V30H15.8468V20.4H14.2948ZM20.3956 21.408C20.449 20.3413 20.8223 19.52 21.5156 18.944C22.2196 18.3573 23.1423 18.064 24.2836 18.064C25.0623 18.064 25.729 18.2027 26.2836 18.48C26.8383 18.7467 27.2543 19.1147 27.5316 19.584C27.8196 20.0427 27.9636 20.5653 27.9636 21.152C27.9636 21.824 27.7876 22.3947 27.4356 22.864C27.0943 23.3227 26.6836 23.632 26.2036 23.792V23.856C26.8223 24.048 27.3023 24.3893 27.6436 24.88C27.9956 25.3707 28.1716 26 28.1716 26.768C28.1716 27.408 28.0223 27.9787 27.7236 28.48C27.4356 28.9813 27.0036 29.376 26.4276 29.664C25.8623 29.9413 25.1796 30.08 24.3796 30.08C23.1743 30.08 22.193 29.776 21.4356 29.168C20.6783 28.56 20.2783 27.664 20.2356 26.48H22.4116C22.433 27.0027 22.609 27.424 22.9396 27.744C23.281 28.0533 23.745 28.208 24.3316 28.208C24.8756 28.208 25.2916 28.0587 25.5796 27.76C25.8783 27.4507 26.0276 27.056 26.0276 26.576C26.0276 25.936 25.825 25.4773 25.4196 25.2C25.0143 24.9227 24.385 24.784 23.5316 24.784H23.0676V22.944H23.5316C25.0463 22.944 25.8036 22.4373 25.8036 21.424C25.8036 20.9653 25.665 20.608 25.3876 20.352C25.121 20.096 24.7316 19.968 24.2196 19.968C23.7183 19.968 23.329 20.1067 23.0516 20.384C22.785 20.6507 22.6303 20.992 22.5876 21.408H20.3956ZM29.9418 24.016C29.9418 22.1707 30.2724 20.7253 30.9338 19.68C31.6058 18.6347 32.7151 18.112 34.2618 18.112C35.8084 18.112 36.9124 18.6347 37.5738 19.68C38.2458 20.7253 38.5818 22.1707 38.5818 24.016C38.5818 25.872 38.2458 27.328 37.5738 28.384C36.9124 29.44 35.8084 29.968 34.2618 29.968C32.7151 29.968 31.6058 29.44 30.9338 28.384C30.2724 27.328 29.9418 25.872 29.9418 24.016ZM36.3738 24.016C36.3738 23.2267 36.3204 22.5653 36.2138 22.032C36.1178 21.488 35.9151 21.0453 35.6058 20.704C35.3071 20.3627 34.8591 20.192 34.2618 20.192C33.6644 20.192 33.2111 20.3627 32.9018 20.704C32.6031 21.0453 32.4004 21.488 32.2938 22.032C32.1978 22.5653 32.1498 23.2267 32.1498 24.016C32.1498 24.8267 32.1978 25.5093 32.2938 26.064C32.3898 26.608 32.5924 27.0507 32.9018 27.392C33.2111 27.7227 33.6644 27.888 34.2618 27.888C34.8591 27.888 35.3124 27.7227 35.6218 27.392C35.9311 27.0507 36.1338 26.608 36.2298 26.064C36.3258 25.5093 36.3738 24.8267 36.3738 24.016ZM41.5335 30.112C41.1282 30.112 40.7922 29.9893 40.5255 29.744C40.2695 29.488 40.1415 29.1733 40.1415 28.8C40.1415 28.4267 40.2695 28.1173 40.5255 27.872C40.7922 27.616 41.1282 27.488 41.5335 27.488C41.9282 27.488 42.2535 27.616 42.5095 27.872C42.7655 28.1173 42.8935 28.4267 42.8935 28.8C42.8935 29.1733 42.7655 29.488 42.5095 29.744C42.2535 29.9893 41.9282 30.112 41.5335 30.112ZM44.4418 24.016C44.4418 22.1707 44.7724 20.7253 45.4338 19.68C46.1058 18.6347 47.2151 18.112 48.7618 18.112C50.3084 18.112 51.4124 18.6347 52.0738 19.68C52.7458 20.7253 53.0818 22.1707 53.0818 24.016C53.0818 25.872 52.7458 27.328 52.0738 28.384C51.4124 29.44 50.3084 29.968 48.7618 29.968C47.2151 29.968 46.1058 29.44 45.4338 28.384C44.7724 27.328 44.4418 25.872 44.4418 24.016ZM50.8738 24.016C50.8738 23.2267 50.8204 22.5653 50.7138 22.032C50.6178 21.488 50.4151 21.0453 50.1058 20.704C49.8071 20.3627 49.3591 20.192 48.7618 20.192C48.1644 20.192 47.7111 20.3627 47.4018 20.704C47.1031 21.0453 46.9004 21.488 46.7938 22.032C46.6978 22.5653 46.6498 23.2267 46.6498 24.016C46.6498 24.8267 46.6978 25.5093 46.7938 26.064C46.8898 26.608 47.0924 27.0507 47.4018 27.392C47.7111 27.7227 48.1644 27.888 48.7618 27.888C49.3591 27.888 49.8124 27.7227 50.1218 27.392C50.4311 27.0507 50.6338 26.608 50.7298 26.064C50.8258 25.5093 50.8738 24.8267 50.8738 24.016ZM54.7855 24.016C54.7855 22.1707 55.1162 20.7253 55.7775 19.68C56.4495 18.6347 57.5588 18.112 59.1055 18.112C60.6522 18.112 61.7562 18.6347 62.4175 19.68C63.0895 20.7253 63.4255 22.1707 63.4255 24.016C63.4255 25.872 63.0895 27.328 62.4175 28.384C61.7562 29.44 60.6522 29.968 59.1055 29.968C57.5588 29.968 56.4495 29.44 55.7775 28.384C55.1162 27.328 54.7855 25.872 54.7855 24.016ZM61.2175 24.016C61.2175 23.2267 61.1642 22.5653 61.0575 22.032C60.9615 21.488 60.7588 21.0453 60.4495 20.704C60.1508 20.3627 59.7028 20.192 59.1055 20.192C58.5082 20.192 58.0548 20.3627 57.7455 20.704C57.4468 21.0453 57.2442 21.488 57.1375 22.032C57.0415 22.5653 56.9935 23.2267 56.9935 24.016C56.9935 24.8267 57.0415 25.5093 57.1375 26.064C57.2335 26.608 57.4362 27.0507 57.7455 27.392C58.0548 27.7227 58.5082 27.888 59.1055 27.888C59.7028 27.888 60.1562 27.7227 60.4655 27.392C60.7748 27.0507 60.9775 26.608 61.0735 26.064C61.1695 25.5093 61.2175 24.8267 61.2175 24.016Z" fill="#181818"/>
<path d="M20.7746 47.86C21.368 47.86 21.8646 47.9167 22.2646 48.03C22.6713 48.1433 22.9746 48.33 23.1746 48.59C23.3813 48.85 23.4846 49.1967 23.4846 49.63C23.4846 49.91 23.4313 50.16 23.3246 50.38C23.2246 50.5933 23.0713 50.7733 22.8646 50.92C22.6646 51.06 22.418 51.1567 22.1246 51.21V51.26C22.4246 51.3067 22.6946 51.3933 22.9346 51.52C23.1813 51.6467 23.3746 51.8267 23.5146 52.06C23.6546 52.2933 23.7246 52.5967 23.7246 52.97C23.7246 53.4033 23.6246 53.7733 23.4246 54.08C23.2246 54.38 22.938 54.61 22.5646 54.77C22.198 54.9233 21.758 55 21.2446 55H18.7346V47.86H20.7746ZM20.9546 50.9C21.568 50.9 21.988 50.8033 22.2146 50.61C22.4413 50.41 22.5546 50.1167 22.5546 49.73C22.5546 49.3367 22.4146 49.0567 22.1346 48.89C21.8613 48.7167 21.4213 48.63 20.8146 48.63H19.6346V50.9H20.9546ZM19.6346 51.65V54.24H21.0746C21.708 54.24 22.148 54.1167 22.3946 53.87C22.6413 53.6233 22.7646 53.3 22.7646 52.9C22.7646 52.6467 22.708 52.4267 22.5946 52.24C22.488 52.0533 22.3046 51.91 22.0446 51.81C21.7913 51.7033 21.4446 51.65 21.0046 51.65H19.6346ZM25.1186 55V49.64H25.9986V51.84H27.3886C27.8552 51.84 28.2386 51.8967 28.5386 52.01C28.8386 52.1233 29.0619 52.2933 29.2086 52.52C29.3552 52.74 29.4286 53.02 29.4286 53.36C29.4286 53.6933 29.3552 53.9833 29.2086 54.23C29.0686 54.4767 28.8452 54.6667 28.5386 54.8C28.2386 54.9333 27.8419 55 27.3486 55H25.1186ZM27.2686 54.29C27.6486 54.29 27.9586 54.2267 28.1986 54.1C28.4386 53.9667 28.5586 53.7367 28.5586 53.41C28.5586 53.0833 28.4486 52.8633 28.2286 52.75C28.0086 52.63 27.6919 52.57 27.2786 52.57H25.9986V54.29H27.2686ZM30.3186 55V49.64H31.1986V55H30.3186ZM35.4518 49.54C36.1118 49.54 36.6418 49.77 37.0418 50.23C37.4484 50.69 37.6518 51.3833 37.6518 52.31C37.6518 52.9167 37.5584 53.43 37.3718 53.85C37.1918 54.2633 36.9351 54.5767 36.6018 54.79C36.2751 54.9967 35.8884 55.1 35.4418 55.1C35.1684 55.1 34.9251 55.0633 34.7118 54.99C34.4984 54.9167 34.3151 54.8233 34.1618 54.71C34.0151 54.59 33.8884 54.46 33.7818 54.32H33.7218C33.7351 54.4333 33.7484 54.5767 33.7618 54.75C33.7751 54.9233 33.7818 55.0733 33.7818 55.2V57.4H32.9018V49.64H33.6218L33.7418 50.37H33.7818C33.8884 50.2167 34.0151 50.0767 34.1618 49.95C34.3151 49.8233 34.4951 49.7233 34.7018 49.65C34.9151 49.5767 35.1651 49.54 35.4518 49.54ZM35.2918 50.28C34.9318 50.28 34.6418 50.35 34.4218 50.49C34.2018 50.6233 34.0418 50.8267 33.9418 51.1C33.8418 51.3733 33.7884 51.72 33.7818 52.14V52.31C33.7818 52.75 33.8284 53.1233 33.9218 53.43C34.0151 53.7367 34.1718 53.97 34.3918 54.13C34.6184 54.29 34.9251 54.37 35.3118 54.37C35.6384 54.37 35.9051 54.28 36.1118 54.1C36.3251 53.92 36.4818 53.6767 36.5818 53.37C36.6884 53.0567 36.7418 52.7 36.7418 52.3C36.7418 51.6867 36.6218 51.1967 36.3818 50.83C36.1484 50.4633 35.7851 50.28 35.2918 50.28ZM38.1164 49.64H39.0564L40.2164 52.69C40.2831 52.87 40.3431 53.0433 40.3964 53.21C40.4564 53.3767 40.5098 53.54 40.5564 53.7C40.6031 53.8533 40.6398 54.0033 40.6664 54.15H40.7064C40.7464 53.9833 40.8098 53.7667 40.8964 53.5C40.9831 53.2267 41.0731 52.9533 41.1664 52.68L42.2564 49.64H43.2064L40.8964 55.74C40.7698 56.0733 40.6198 56.3633 40.4464 56.61C40.2798 56.8633 40.0731 57.0567 39.8264 57.19C39.5864 57.33 39.2931 57.4 38.9464 57.4C38.7864 57.4 38.6464 57.39 38.5264 57.37C38.4064 57.3567 38.3031 57.34 38.2164 57.32V56.62C38.2898 56.6333 38.3764 56.6467 38.4764 56.66C38.5831 56.6733 38.6931 56.68 38.8064 56.68C39.0131 56.68 39.1898 56.64 39.3364 56.56C39.4898 56.4867 39.6198 56.3767 39.7264 56.23C39.8331 56.09 39.9231 55.9233 39.9964 55.73L40.2764 55.02L38.1164 49.64ZM44.8241 51.59C44.8241 51.9033 44.9108 52.1367 45.0841 52.29C45.2641 52.4367 45.5208 52.51 45.8541 52.51C46.1874 52.51 46.4908 52.46 46.7641 52.36C47.0374 52.2533 47.3174 52.1133 47.6041 51.94V49.64H48.4841V55H47.6041V52.61C47.3041 52.8033 47.0074 52.9567 46.7141 53.07C46.4274 53.1767 46.0808 53.23 45.6741 53.23C45.1274 53.23 44.7008 53.0867 44.3941 52.8C44.0941 52.5133 43.9441 52.13 43.9441 51.65V49.64H44.8241V51.59ZM53.3569 49.64H54.3169L52.0269 52.22L54.5069 55H53.4869L51.0669 52.28V55H50.1869V49.64H51.0669V52.24L53.3569 49.64ZM57.5099 49.55C58.1632 49.55 58.6465 49.6933 58.9599 49.98C59.2732 50.2667 59.4299 50.7233 59.4299 51.35V55H58.7899L58.6199 54.24H58.5799C58.4265 54.4333 58.2665 54.5967 58.0999 54.73C57.9399 54.8567 57.7532 54.95 57.5399 55.01C57.3332 55.07 57.0799 55.1 56.7799 55.1C56.4599 55.1 56.1699 55.0433 55.9099 54.93C55.6565 54.8167 55.4565 54.6433 55.3099 54.41C55.1632 54.17 55.0899 53.87 55.0899 53.51C55.0899 52.9767 55.2999 52.5667 55.7199 52.28C56.1399 51.9867 56.7865 51.8267 57.6599 51.8L58.5699 51.77V51.45C58.5699 51.0033 58.4732 50.6933 58.2799 50.52C58.0865 50.3467 57.8132 50.26 57.4599 50.26C57.1799 50.26 56.9132 50.3033 56.6599 50.39C56.4065 50.47 56.1699 50.5633 55.9499 50.67L55.6799 50.01C55.9132 49.8833 56.1899 49.7767 56.5099 49.69C56.8299 49.5967 57.1632 49.55 57.5099 49.55ZM57.7699 52.41C57.1032 52.4367 56.6399 52.5433 56.3799 52.73C56.1265 52.9167 55.9999 53.18 55.9999 53.52C55.9999 53.82 56.0899 54.04 56.2699 54.18C56.4565 54.32 56.6932 54.39 56.9799 54.39C57.4332 54.39 57.8099 54.2667 58.1099 54.02C58.4099 53.7667 58.5599 53.38 58.5599 52.86V52.38L57.7699 52.41Z" fill="#4F4F4F"/>
<rect x="88" width="78" height="66" rx="8" fill="white"/>
<path d="M101.912 20.4V18.336H105.768V30H103.464V20.4H101.912ZM107.981 24.016C107.981 22.1707 108.311 20.7253 108.973 19.68C109.645 18.6347 110.754 18.112 112.301 18.112C113.847 18.112 114.951 18.6347 115.613 19.68C116.285 20.7253 116.621 22.1707 116.621 24.016C116.621 25.872 116.285 27.328 115.613 28.384C114.951 29.44 113.847 29.968 112.301 29.968C110.754 29.968 109.645 29.44 108.973 28.384C108.311 27.328 107.981 25.872 107.981 24.016ZM114.413 24.016C114.413 23.2267 114.359 22.5653 114.253 22.032C114.157 21.488 113.954 21.0453 113.645 20.704C113.346 20.3627 112.898 20.192 112.301 20.192C111.703 20.192 111.25 20.3627 110.941 20.704C110.642 21.0453 110.439 21.488 110.333 22.032C110.237 22.5653 110.189 23.2267 110.189 24.016C110.189 24.8267 110.237 25.5093 110.333 26.064C110.429 26.608 110.631 27.0507 110.941 27.392C111.25 27.7227 111.703 27.888 112.301 27.888C112.898 27.888 113.351 27.7227 113.661 27.392C113.97 27.0507 114.173 26.608 114.269 26.064C114.365 25.5093 114.413 24.8267 114.413 24.016ZM118.325 24.016C118.325 22.1707 118.655 20.7253 119.317 19.68C119.989 18.6347 121.098 18.112 122.645 18.112C124.191 18.112 125.295 18.6347 125.957 19.68C126.629 20.7253 126.965 22.1707 126.965 24.016C126.965 25.872 126.629 27.328 125.957 28.384C125.295 29.44 124.191 29.968 122.645 29.968C121.098 29.968 119.989 29.44 119.317 28.384C118.655 27.328 118.325 25.872 118.325 24.016ZM124.757 24.016C124.757 23.2267 124.703 22.5653 124.597 22.032C124.501 21.488 124.298 21.0453 123.989 20.704C123.69 20.3627 123.242 20.192 122.645 20.192C122.047 20.192 121.594 20.3627 121.285 20.704C120.986 21.0453 120.783 21.488 120.677 22.032C120.581 22.5653 120.533 23.2267 120.533 24.016C120.533 24.8267 120.581 25.5093 120.677 26.064C120.773 26.608 120.975 27.0507 121.285 27.392C121.594 27.7227 122.047 27.888 122.645 27.888C123.242 27.888 123.695 27.7227 124.005 27.392C124.314 27.0507 124.517 26.608 124.613 26.064C124.709 25.5093 124.757 24.8267 124.757 24.016ZM129.916 30.112C129.511 30.112 129.175 29.9893 128.908 29.744C128.652 29.488 128.524 29.1733 128.524 28.8C128.524 28.4267 128.652 28.1173 128.908 27.872C129.175 27.616 129.511 27.488 129.916 27.488C130.311 27.488 130.636 27.616 130.892 27.872C131.148 28.1173 131.276 28.4267 131.276 28.8C131.276 29.1733 131.148 29.488 130.892 29.744C130.636 29.9893 130.311 30.112 129.916 30.112ZM132.825 24.016C132.825 22.1707 133.155 20.7253 133.817 19.68C134.489 18.6347 135.598 18.112 137.145 18.112C138.691 18.112 139.795 18.6347 140.457 19.68C141.129 20.7253 141.465 22.1707 141.465 24.016C141.465 25.872 141.129 27.328 140.457 28.384C139.795 29.44 138.691 29.968 137.145 29.968C135.598 29.968 134.489 29.44 133.817 28.384C133.155 27.328 132.825 25.872 132.825 24.016ZM139.257 24.016C139.257 23.2267 139.203 22.5653 139.097 22.032C139.001 21.488 138.798 21.0453 138.489 20.704C138.19 20.3627 137.742 20.192 137.145 20.192C136.547 20.192 136.094 20.3627 135.785 20.704C135.486 21.0453 135.283 21.488 135.177 22.032C135.081 22.5653 135.033 23.2267 135.033 24.016C135.033 24.8267 135.081 25.5093 135.177 26.064C135.273 26.608 135.475 27.0507 135.785 27.392C136.094 27.7227 136.547 27.888 137.145 27.888C137.742 27.888 138.195 27.7227 138.505 27.392C138.814 27.0507 139.017 26.608 139.113 26.064C139.209 25.5093 139.257 24.8267 139.257 24.016ZM143.168 24.016C143.168 22.1707 143.499 20.7253 144.16 19.68C144.832 18.6347 145.942 18.112 147.488 18.112C149.035 18.112 150.139 18.6347 150.8 19.68C151.472 20.7253 151.808 22.1707 151.808 24.016C151.808 25.872 151.472 27.328 150.8 28.384C150.139 29.44 149.035 29.968 147.488 29.968C145.942 29.968 144.832 29.44 144.16 28.384C143.499 27.328 143.168 25.872 143.168 24.016ZM149.6 24.016C149.6 23.2267 149.547 22.5653 149.44 22.032C149.344 21.488 149.142 21.0453 148.832 20.704C148.534 20.3627 148.086 20.192 147.488 20.192C146.891 20.192 146.438 20.3627 146.128 20.704C145.83 21.0453 145.627 21.488 145.52 22.032C145.424 22.5653 145.376 23.2267 145.376 24.016C145.376 24.8267 145.424 25.5093 145.52 26.064C145.616 26.608 145.819 27.0507 146.128 27.392C146.438 27.7227 146.891 27.888 147.488 27.888C148.086 27.888 148.539 27.7227 148.848 27.392C149.158 27.0507 149.36 26.608 149.456 26.064C149.552 25.5093 149.6 24.8267 149.6 24.016Z" fill="#181818"/>
<path d="M103.376 47.86H104.216V51.78C104.216 51.9467 104.212 52.13 104.206 52.33C104.206 52.5233 104.202 52.7167 104.196 52.91C104.189 53.1033 104.179 53.2767 104.166 53.43C104.159 53.5767 104.152 53.69 104.146 53.77H104.186L108.116 47.86H109.116V55H108.276V51.12C108.276 50.94 108.279 50.7467 108.286 50.54C108.292 50.3267 108.299 50.1233 108.306 49.93C108.319 49.73 108.329 49.5533 108.336 49.4C108.342 49.2467 108.349 49.1333 108.356 49.06H108.316L104.376 55H103.376V47.86ZM112.331 49.54C112.738 49.54 113.091 49.5967 113.391 49.71C113.691 49.8167 113.925 49.9767 114.091 50.19C114.258 50.3967 114.341 50.65 114.341 50.95C114.341 51.2767 114.251 51.5367 114.071 51.73C113.891 51.9167 113.645 52.0533 113.331 52.14V52.18C113.545 52.24 113.741 52.3233 113.921 52.43C114.101 52.5367 114.245 52.6767 114.351 52.85C114.465 53.0233 114.521 53.2467 114.521 53.52C114.521 53.8133 114.438 54.08 114.271 54.32C114.111 54.56 113.861 54.75 113.521 54.89C113.188 55.03 112.758 55.1 112.231 55.1C111.978 55.1 111.735 55.0867 111.501 55.06C111.275 55.0333 111.068 54.9933 110.881 54.94C110.701 54.8867 110.541 54.8233 110.401 54.75V53.96C110.628 54.0667 110.895 54.1633 111.201 54.25C111.515 54.3367 111.855 54.38 112.221 54.38C112.488 54.38 112.728 54.35 112.941 54.29C113.161 54.23 113.335 54.1367 113.461 54.01C113.588 53.8767 113.651 53.6967 113.651 53.47C113.651 53.2633 113.595 53.0967 113.481 52.97C113.368 52.8367 113.198 52.7367 112.971 52.67C112.751 52.6033 112.468 52.57 112.121 52.57H111.401V51.85H111.981C112.441 51.85 112.808 51.79 113.081 51.67C113.361 51.5433 113.501 51.33 113.501 51.03C113.501 50.7767 113.395 50.5867 113.181 50.46C112.975 50.3333 112.675 50.27 112.281 50.27C111.988 50.27 111.728 50.3 111.501 50.36C111.281 50.4133 111.038 50.4967 110.771 50.61L110.461 49.91C110.748 49.7833 111.048 49.69 111.361 49.63C111.675 49.57 111.998 49.54 112.331 49.54ZM119.804 49.64V54.26H120.584V56.86H119.734V55H116.004V56.86H115.164V54.26H115.594C115.9 53.8333 116.154 53.37 116.354 52.87C116.56 52.3633 116.714 51.8367 116.814 51.29C116.92 50.7367 116.977 50.1867 116.984 49.64H119.804ZM117.764 50.33C117.737 50.7833 117.667 51.2533 117.554 51.74C117.44 52.22 117.294 52.68 117.114 53.12C116.94 53.56 116.737 53.94 116.504 54.26H118.954V50.33H117.764ZM123.704 49.54C124.164 49.54 124.558 49.64 124.884 49.84C125.218 50.04 125.471 50.3233 125.644 50.69C125.824 51.05 125.914 51.4733 125.914 51.96V52.49H122.244C122.258 53.0967 122.411 53.56 122.704 53.88C123.004 54.1933 123.421 54.35 123.954 54.35C124.294 54.35 124.594 54.32 124.854 54.26C125.121 54.1933 125.394 54.1 125.674 53.98V54.75C125.401 54.87 125.131 54.9567 124.864 55.01C124.598 55.07 124.281 55.1 123.914 55.1C123.408 55.1 122.958 54.9967 122.564 54.79C122.178 54.5833 121.874 54.2767 121.654 53.87C121.441 53.4567 121.334 52.9533 121.334 52.36C121.334 51.7733 121.431 51.27 121.624 50.85C121.824 50.43 122.101 50.1067 122.454 49.88C122.814 49.6533 123.231 49.54 123.704 49.54ZM123.694 50.26C123.274 50.26 122.941 50.3967 122.694 50.67C122.454 50.9367 122.311 51.31 122.264 51.79H124.994C124.994 51.4833 124.948 51.2167 124.854 50.99C124.761 50.7633 124.618 50.5867 124.424 50.46C124.238 50.3267 123.994 50.26 123.694 50.26ZM129.829 49.54C130.489 49.54 131.019 49.77 131.419 50.23C131.825 50.69 132.029 51.3833 132.029 52.31C132.029 52.9167 131.935 53.43 131.749 53.85C131.569 54.2633 131.312 54.5767 130.979 54.79C130.652 54.9967 130.265 55.1 129.819 55.1C129.545 55.1 129.302 55.0633 129.089 54.99C128.875 54.9167 128.692 54.8233 128.539 54.71C128.392 54.59 128.265 54.46 128.159 54.32H128.099C128.112 54.4333 128.125 54.5767 128.139 54.75C128.152 54.9233 128.159 55.0733 128.159 55.2V57.4H127.279V49.64H127.999L128.119 50.37H128.159C128.265 50.2167 128.392 50.0767 128.539 49.95C128.692 49.8233 128.872 49.7233 129.079 49.65C129.292 49.5767 129.542 49.54 129.829 49.54ZM129.669 50.28C129.309 50.28 129.019 50.35 128.799 50.49C128.579 50.6233 128.419 50.8267 128.319 51.1C128.219 51.3733 128.165 51.72 128.159 52.14V52.31C128.159 52.75 128.205 53.1233 128.299 53.43C128.392 53.7367 128.549 53.97 128.769 54.13C128.995 54.29 129.302 54.37 129.689 54.37C130.015 54.37 130.282 54.28 130.489 54.1C130.702 53.92 130.859 53.6767 130.959 53.37C131.065 53.0567 131.119 52.7 131.119 52.3C131.119 51.6867 130.999 51.1967 130.759 50.83C130.525 50.4633 130.162 50.28 129.669 50.28ZM139.666 49.64L137.456 52.24L139.856 55H138.856L136.536 52.28V55H135.716V52.28L133.396 55H132.396L134.796 52.24L132.586 49.64H133.546L135.716 52.24V49.64H136.536V52.24L138.716 49.64H139.666ZM143.906 49.64H144.866L142.576 52.22L145.056 55H144.036L141.616 52.28V55H140.736V49.64H141.616V52.24L143.906 49.64ZM146.859 52.91C146.859 52.97 146.855 53.0567 146.849 53.17C146.849 53.2767 146.845 53.3933 146.839 53.52C146.832 53.64 146.825 53.7567 146.819 53.87C146.812 53.9767 146.805 54.0633 146.799 54.13L149.669 49.64H150.749V55H149.929V51.84C149.929 51.7333 149.929 51.5933 149.929 51.42C149.935 51.2467 149.942 51.0767 149.949 50.91C149.955 50.7367 149.962 50.6067 149.969 50.52L147.119 55H146.029V49.64H146.859V52.91Z" fill="#4F4F4F"/>
<rect x="176" width="78" height="66" rx="8" fill="white"/>
<path d="M189.912 20.4V18.336H193.768V30H191.464V20.4H189.912ZM195.981 24.016C195.981 22.1707 196.311 20.7253 196.973 19.68C197.645 18.6347 198.754 18.112 200.301 18.112C201.847 18.112 202.951 18.6347 203.613 19.68C204.285 20.7253 204.621 22.1707 204.621 24.016C204.621 25.872 204.285 27.328 203.613 28.384C202.951 29.44 201.847 29.968 200.301 29.968C198.754 29.968 197.645 29.44 196.973 28.384C196.311 27.328 195.981 25.872 195.981 24.016ZM202.413 24.016C202.413 23.2267 202.359 22.5653 202.253 22.032C202.157 21.488 201.954 21.0453 201.645 20.704C201.346 20.3627 200.898 20.192 200.301 20.192C199.703 20.192 199.25 20.3627 198.941 20.704C198.642 21.0453 198.439 21.488 198.333 22.032C198.237 22.5653 198.189 23.2267 198.189 24.016C198.189 24.8267 198.237 25.5093 198.333 26.064C198.429 26.608 198.631 27.0507 198.941 27.392C199.25 27.7227 199.703 27.888 200.301 27.888C200.898 27.888 201.351 27.7227 201.661 27.392C201.97 27.0507 202.173 26.608 202.269 26.064C202.365 25.5093 202.413 24.8267 202.413 24.016ZM206.325 24.016C206.325 22.1707 206.655 20.7253 207.317 19.68C207.989 18.6347 209.098 18.112 210.645 18.112C212.191 18.112 213.295 18.6347 213.957 19.68C214.629 20.7253 214.965 22.1707 214.965 24.016C214.965 25.872 214.629 27.328 213.957 28.384C213.295 29.44 212.191 29.968 210.645 29.968C209.098 29.968 207.989 29.44 207.317 28.384C206.655 27.328 206.325 25.872 206.325 24.016ZM212.757 24.016C212.757 23.2267 212.703 22.5653 212.597 22.032C212.501 21.488 212.298 21.0453 211.989 20.704C211.69 20.3627 211.242 20.192 210.645 20.192C210.047 20.192 209.594 20.3627 209.285 20.704C208.986 21.0453 208.783 21.488 208.677 22.032C208.581 22.5653 208.533 23.2267 208.533 24.016C208.533 24.8267 208.581 25.5093 208.677 26.064C208.773 26.608 208.975 27.0507 209.285 27.392C209.594 27.7227 210.047 27.888 210.645 27.888C211.242 27.888 211.695 27.7227 212.005 27.392C212.314 27.0507 212.517 26.608 212.613 26.064C212.709 25.5093 212.757 24.8267 212.757 24.016ZM217.916 30.112C217.511 30.112 217.175 29.9893 216.908 29.744C216.652 29.488 216.524 29.1733 216.524 28.8C216.524 28.4267 216.652 28.1173 216.908 27.872C217.175 27.616 217.511 27.488 217.916 27.488C218.311 27.488 218.636 27.616 218.892 27.872C219.148 28.1173 219.276 28.4267 219.276 28.8C219.276 29.1733 219.148 29.488 218.892 29.744C218.636 29.9893 218.311 30.112 217.916 30.112ZM220.825 24.016C220.825 22.1707 221.155 20.7253 221.817 19.68C222.489 18.6347 223.598 18.112 225.145 18.112C226.691 18.112 227.795 18.6347 228.457 19.68C229.129 20.7253 229.465 22.1707 229.465 24.016C229.465 25.872 229.129 27.328 228.457 28.384C227.795 29.44 226.691 29.968 225.145 29.968C223.598 29.968 222.489 29.44 221.817 28.384C221.155 27.328 220.825 25.872 220.825 24.016ZM227.257 24.016C227.257 23.2267 227.203 22.5653 227.097 22.032C227.001 21.488 226.798 21.0453 226.489 20.704C226.19 20.3627 225.742 20.192 225.145 20.192C224.547 20.192 224.094 20.3627 223.785 20.704C223.486 21.0453 223.283 21.488 223.177 22.032C223.081 22.5653 223.033 23.2267 223.033 24.016C223.033 24.8267 223.081 25.5093 223.177 26.064C223.273 26.608 223.475 27.0507 223.785 27.392C224.094 27.7227 224.547 27.888 225.145 27.888C225.742 27.888 226.195 27.7227 226.505 27.392C226.814 27.0507 227.017 26.608 227.113 26.064C227.209 25.5093 227.257 24.8267 227.257 24.016ZM231.168 24.016C231.168 22.1707 231.499 20.7253 232.16 19.68C232.832 18.6347 233.942 18.112 235.488 18.112C237.035 18.112 238.139 18.6347 238.8 19.68C239.472 20.7253 239.808 22.1707 239.808 24.016C239.808 25.872 239.472 27.328 238.8 28.384C238.139 29.44 237.035 29.968 235.488 29.968C233.942 29.968 232.832 29.44 232.16 28.384C231.499 27.328 231.168 25.872 231.168 24.016ZM237.6 24.016C237.6 23.2267 237.547 22.5653 237.44 22.032C237.344 21.488 237.142 21.0453 236.832 20.704C236.534 20.3627 236.086 20.192 235.488 20.192C234.891 20.192 234.438 20.3627 234.128 20.704C233.83 21.0453 233.627 21.488 233.52 22.032C233.424 22.5653 233.376 23.2267 233.376 24.016C233.376 24.8267 233.424 25.5093 233.52 26.064C233.616 26.608 233.819 27.0507 234.128 27.392C234.438 27.7227 234.891 27.888 235.488 27.888C236.086 27.888 236.539 27.7227 236.848 27.392C237.158 27.0507 237.36 26.608 237.456 26.064C237.552 25.5093 237.6 24.8267 237.6 24.016Z" fill="#181818"/>
<path d="M193.28 55V47.86H198.64V55H197.75V48.65H194.18V55H193.28ZM203.024 49.54C203.684 49.54 204.214 49.77 204.614 50.23C205.021 50.69 205.224 51.3833 205.224 52.31C205.224 52.9167 205.131 53.43 204.944 53.85C204.764 54.2633 204.507 54.5767 204.174 54.79C203.847 54.9967 203.461 55.1 203.014 55.1C202.741 55.1 202.497 55.0633 202.284 54.99C202.071 54.9167 201.887 54.8233 201.734 54.71C201.587 54.59 201.461 54.46 201.354 54.32H201.294C201.307 54.4333 201.321 54.5767 201.334 54.75C201.347 54.9233 201.354 55.0733 201.354 55.2V57.4H200.474V49.64H201.194L201.314 50.37H201.354C201.461 50.2167 201.587 50.0767 201.734 49.95C201.887 49.8233 202.067 49.7233 202.274 49.65C202.487 49.5767 202.737 49.54 203.024 49.54ZM202.864 50.28C202.504 50.28 202.214 50.35 201.994 50.49C201.774 50.6233 201.614 50.8267 201.514 51.1C201.414 51.3733 201.361 51.72 201.354 52.14V52.31C201.354 52.75 201.401 53.1233 201.494 53.43C201.587 53.7367 201.744 53.97 201.964 54.13C202.191 54.29 202.497 54.37 202.884 54.37C203.211 54.37 203.477 54.28 203.684 54.1C203.897 53.92 204.054 53.6767 204.154 53.37C204.261 53.0567 204.314 52.7 204.314 52.3C204.314 51.6867 204.194 51.1967 203.954 50.83C203.721 50.4633 203.357 50.28 202.864 50.28ZM207.456 52.91C207.456 52.97 207.453 53.0567 207.446 53.17C207.446 53.2767 207.443 53.3933 207.436 53.52C207.43 53.64 207.423 53.7567 207.416 53.87C207.41 53.9767 207.403 54.0633 207.396 54.13L210.266 49.64H211.346V55H210.526V51.84C210.526 51.7333 210.526 51.5933 210.526 51.42C210.533 51.2467 210.54 51.0767 210.546 50.91C210.553 50.7367 210.56 50.6067 210.566 50.52L207.716 55H206.626V49.64H207.456V52.91ZM212.772 51.78C212.772 51 212.849 50.3367 213.002 49.79C213.162 49.2367 213.405 48.7967 213.732 48.47C214.065 48.1367 214.492 47.9133 215.012 47.8C215.445 47.7067 215.869 47.6233 216.282 47.55C216.695 47.4767 217.082 47.41 217.442 47.35L217.592 48.12C217.419 48.1467 217.225 48.18 217.012 48.22C216.799 48.2533 216.582 48.29 216.362 48.33C216.142 48.3633 215.929 48.4 215.722 48.44C215.522 48.4733 215.345 48.5067 215.192 48.54C214.972 48.5867 214.775 48.6667 214.602 48.78C214.429 48.8867 214.279 49.0333 214.152 49.22C214.032 49.4067 213.935 49.6367 213.862 49.91C213.789 50.1833 213.745 50.5067 213.732 50.88H213.792C213.885 50.7533 214.012 50.6233 214.172 50.49C214.339 50.3567 214.535 50.2433 214.762 50.15C214.995 50.0567 215.259 50.01 215.552 50.01C216.019 50.01 216.405 50.1133 216.712 50.32C217.025 50.52 217.259 50.8 217.412 51.16C217.572 51.52 217.652 51.94 217.652 52.42C217.652 53.0133 217.549 53.51 217.342 53.91C217.135 54.31 216.849 54.61 216.482 54.81C216.115 55.0033 215.689 55.1 215.202 55.1C214.835 55.1 214.502 55.03 214.202 54.89C213.902 54.7433 213.645 54.53 213.432 54.25C213.219 53.97 213.055 53.6233 212.942 53.21C212.829 52.7967 212.772 52.32 212.772 51.78ZM215.272 54.37C215.565 54.37 215.819 54.31 216.032 54.19C216.252 54.07 216.422 53.8733 216.542 53.6C216.662 53.3267 216.722 52.9633 216.722 52.51C216.722 51.9633 216.619 51.5333 216.412 51.22C216.212 50.9 215.879 50.74 215.412 50.74C215.119 50.74 214.852 50.8067 214.612 50.94C214.372 51.0667 214.172 51.2133 214.012 51.38C213.852 51.5467 213.739 51.6867 213.672 51.8C213.672 52.1267 213.695 52.4433 213.742 52.75C213.789 53.0567 213.869 53.3333 213.982 53.58C214.102 53.82 214.265 54.0133 214.472 54.16C214.685 54.3 214.952 54.37 215.272 54.37ZM219.038 55V49.64H219.918V51.84H221.308C221.775 51.84 222.158 51.8967 222.458 52.01C222.758 52.1233 222.982 52.2933 223.128 52.52C223.275 52.74 223.348 53.02 223.348 53.36C223.348 53.6933 223.275 53.9833 223.128 54.23C222.988 54.4767 222.765 54.6667 222.458 54.8C222.158 54.9333 221.762 55 221.268 55H219.038ZM221.188 54.29C221.568 54.29 221.878 54.2267 222.118 54.1C222.358 53.9667 222.478 53.7367 222.478 53.41C222.478 53.0833 222.368 52.8633 222.148 52.75C221.928 52.63 221.612 52.57 221.198 52.57H219.918V54.29H221.188ZM224.238 55V49.64H225.118V55H224.238ZM230.902 55H230.012V50.37H228.432C228.365 51.2167 228.282 51.94 228.182 52.54C228.082 53.1333 227.955 53.6167 227.802 53.99C227.648 54.3633 227.465 54.6367 227.252 54.81C227.038 54.9833 226.788 55.07 226.502 55.07C226.415 55.07 226.328 55.0633 226.242 55.05C226.162 55.0433 226.095 55.0267 226.042 55V54.34C226.082 54.3533 226.125 54.3633 226.172 54.37C226.218 54.3767 226.265 54.38 226.312 54.38C226.458 54.38 226.592 54.32 226.712 54.2C226.832 54.08 226.938 53.8967 227.032 53.65C227.132 53.4033 227.222 53.0933 227.302 52.72C227.382 52.34 227.452 51.8933 227.512 51.38C227.572 50.8667 227.625 50.2867 227.672 49.64H230.902V55ZM235.073 51.84C235.54 51.84 235.926 51.8967 236.233 52.01C236.54 52.1233 236.77 52.2933 236.923 52.52C237.083 52.74 237.163 53.02 237.163 53.36C237.163 53.6933 237.086 53.9833 236.933 54.23C236.786 54.4767 236.556 54.6667 236.243 54.8C235.93 54.9333 235.526 55 235.033 55H232.603V49.64H233.483V51.84H235.073ZM236.283 53.41C236.283 53.0833 236.166 52.8633 235.933 52.75C235.706 52.63 235.386 52.57 234.973 52.57H233.483V54.29H234.993C235.366 54.29 235.673 54.2233 235.913 54.09C236.16 53.9567 236.283 53.73 236.283 53.41Z" fill="#4F4F4F"/>
<rect x="264" width="78" height="66" rx="8" fill="white"/>
<path d="M278.295 20.4V18.336H282.151V30H279.847V20.4H278.295ZM284.396 21.408C284.449 20.3413 284.822 19.52 285.516 18.944C286.22 18.3573 287.142 18.064 288.284 18.064C289.062 18.064 289.729 18.2027 290.284 18.48C290.838 18.7467 291.254 19.1147 291.532 19.584C291.82 20.0427 291.964 20.5653 291.964 21.152C291.964 21.824 291.788 22.3947 291.436 22.864C291.094 23.3227 290.684 23.632 290.204 23.792V23.856C290.822 24.048 291.302 24.3893 291.644 24.88C291.996 25.3707 292.172 26 292.172 26.768C292.172 27.408 292.022 27.9787 291.724 28.48C291.436 28.9813 291.004 29.376 290.428 29.664C289.862 29.9413 289.18 30.08 288.38 30.08C287.174 30.08 286.193 29.776 285.436 29.168C284.678 28.56 284.278 27.664 284.236 26.48H286.412C286.433 27.0027 286.609 27.424 286.94 27.744C287.281 28.0533 287.745 28.208 288.332 28.208C288.876 28.208 289.292 28.0587 289.58 27.76C289.878 27.4507 290.028 27.056 290.028 26.576C290.028 25.936 289.825 25.4773 289.42 25.2C289.014 24.9227 288.385 24.784 287.532 24.784H287.068V22.944H287.532C289.046 22.944 289.804 22.4373 289.804 21.424C289.804 20.9653 289.665 20.608 289.388 20.352C289.121 20.096 288.732 19.968 288.22 19.968C287.718 19.968 287.329 20.1067 287.052 20.384C286.785 20.6507 286.63 20.992 286.588 21.408H284.396ZM293.942 24.016C293.942 22.1707 294.272 20.7253 294.934 19.68C295.606 18.6347 296.715 18.112 298.262 18.112C299.808 18.112 300.912 18.6347 301.574 19.68C302.246 20.7253 302.582 22.1707 302.582 24.016C302.582 25.872 302.246 27.328 301.574 28.384C300.912 29.44 299.808 29.968 298.262 29.968C296.715 29.968 295.606 29.44 294.934 28.384C294.272 27.328 293.942 25.872 293.942 24.016ZM300.374 24.016C300.374 23.2267 300.32 22.5653 300.214 22.032C300.118 21.488 299.915 21.0453 299.606 20.704C299.307 20.3627 298.859 20.192 298.262 20.192C297.664 20.192 297.211 20.3627 296.902 20.704C296.603 21.0453 296.4 21.488 296.294 22.032C296.198 22.5653 296.15 23.2267 296.15 24.016C296.15 24.8267 296.198 25.5093 296.294 26.064C296.39 26.608 296.592 27.0507 296.902 27.392C297.211 27.7227 297.664 27.888 298.262 27.888C298.859 27.888 299.312 27.7227 299.622 27.392C299.931 27.0507 300.134 26.608 300.23 26.064C300.326 25.5093 300.374 24.8267 300.374 24.016ZM305.534 30.112C305.128 30.112 304.792 29.9893 304.526 29.744C304.27 29.488 304.142 29.1733 304.142 28.8C304.142 28.4267 304.27 28.1173 304.526 27.872C304.792 27.616 305.128 27.488 305.534 27.488C305.928 27.488 306.254 27.616 306.51 27.872C306.766 28.1173 306.894 28.4267 306.894 28.8C306.894 29.1733 306.766 29.488 306.51 29.744C306.254 29.9893 305.928 30.112 305.534 30.112ZM308.442 24.016C308.442 22.1707 308.772 20.7253 309.434 19.68C310.106 18.6347 311.215 18.112 312.762 18.112C314.308 18.112 315.412 18.6347 316.074 19.68C316.746 20.7253 317.082 22.1707 317.082 24.016C317.082 25.872 316.746 27.328 316.074 28.384C315.412 29.44 314.308 29.968 312.762 29.968C311.215 29.968 310.106 29.44 309.434 28.384C308.772 27.328 308.442 25.872 308.442 24.016ZM314.874 24.016C314.874 23.2267 314.82 22.5653 314.714 22.032C314.618 21.488 314.415 21.0453 314.106 20.704C313.807 20.3627 313.359 20.192 312.762 20.192C312.164 20.192 311.711 20.3627 311.402 20.704C311.103 21.0453 310.9 21.488 310.794 22.032C310.698 22.5653 310.65 23.2267 310.65 24.016C310.65 24.8267 310.698 25.5093 310.794 26.064C310.89 26.608 311.092 27.0507 311.402 27.392C311.711 27.7227 312.164 27.888 312.762 27.888C313.359 27.888 313.812 27.7227 314.122 27.392C314.431 27.0507 314.634 26.608 314.73 26.064C314.826 25.5093 314.874 24.8267 314.874 24.016ZM318.786 24.016C318.786 22.1707 319.116 20.7253 319.778 19.68C320.45 18.6347 321.559 18.112 323.106 18.112C324.652 18.112 325.756 18.6347 326.418 19.68C327.09 20.7253 327.426 22.1707 327.426 24.016C327.426 25.872 327.09 27.328 326.418 28.384C325.756 29.44 324.652 29.968 323.106 29.968C321.559 29.968 320.45 29.44 319.778 28.384C319.116 27.328 318.786 25.872 318.786 24.016ZM325.218 24.016C325.218 23.2267 325.164 22.5653 325.058 22.032C324.962 21.488 324.759 21.0453 324.45 20.704C324.151 20.3627 323.703 20.192 323.106 20.192C322.508 20.192 322.055 20.3627 321.746 20.704C321.447 21.0453 321.244 21.488 321.138 22.032C321.042 22.5653 320.994 23.2267 320.994 24.016C320.994 24.8267 321.042 25.5093 321.138 26.064C321.234 26.608 321.436 27.0507 321.746 27.392C322.055 27.7227 322.508 27.888 323.106 27.888C323.703 27.888 324.156 27.7227 324.466 27.392C324.775 27.0507 324.978 26.608 325.074 26.064C325.17 25.5093 325.218 24.8267 325.218 24.016Z" fill="#181818"/>
<path d="M275.59 48.55C275.21 48.55 274.866 48.6167 274.56 48.75C274.253 48.8767 273.993 49.0667 273.78 49.32C273.566 49.5667 273.403 49.87 273.29 50.23C273.176 50.5833 273.12 50.9833 273.12 51.43C273.12 52.0167 273.21 52.5267 273.39 52.96C273.576 53.3933 273.85 53.7267 274.21 53.96C274.576 54.1933 275.033 54.31 275.58 54.31C275.893 54.31 276.19 54.2833 276.47 54.23C276.75 54.1767 277.023 54.11 277.29 54.03V54.81C277.023 54.91 276.746 54.9833 276.46 55.03C276.18 55.0767 275.843 55.1 275.45 55.1C274.723 55.1 274.116 54.95 273.63 54.65C273.143 54.35 272.776 53.9233 272.53 53.37C272.29 52.8167 272.17 52.1667 272.17 51.42C272.17 50.88 272.243 50.3867 272.39 49.94C272.543 49.4933 272.763 49.1067 273.05 48.78C273.343 48.4533 273.703 48.2033 274.13 48.03C274.556 47.85 275.046 47.76 275.6 47.76C275.966 47.76 276.32 47.7967 276.66 47.87C277 47.9433 277.303 48.0467 277.57 48.18L277.21 48.94C276.99 48.84 276.743 48.75 276.47 48.67C276.203 48.59 275.91 48.55 275.59 48.55ZM281.278 49.54C281.938 49.54 282.468 49.77 282.868 50.23C283.275 50.69 283.478 51.3833 283.478 52.31C283.478 52.9167 283.385 53.43 283.198 53.85C283.018 54.2633 282.761 54.5767 282.428 54.79C282.101 54.9967 281.715 55.1 281.268 55.1C280.995 55.1 280.751 55.0633 280.538 54.99C280.325 54.9167 280.141 54.8233 279.988 54.71C279.841 54.59 279.715 54.46 279.608 54.32H279.548C279.561 54.4333 279.575 54.5767 279.588 54.75C279.601 54.9233 279.608 55.0733 279.608 55.2V57.4H278.728V49.64H279.448L279.568 50.37H279.608C279.715 50.2167 279.841 50.0767 279.988 49.95C280.141 49.8233 280.321 49.7233 280.528 49.65C280.741 49.5767 280.991 49.54 281.278 49.54ZM281.118 50.28C280.758 50.28 280.468 50.35 280.248 50.49C280.028 50.6233 279.868 50.8267 279.768 51.1C279.668 51.3733 279.615 51.72 279.608 52.14V52.31C279.608 52.75 279.655 53.1233 279.748 53.43C279.841 53.7367 279.998 53.97 280.218 54.13C280.445 54.29 280.751 54.37 281.138 54.37C281.465 54.37 281.731 54.28 281.938 54.1C282.151 53.92 282.308 53.6767 282.408 53.37C282.515 53.0567 282.568 52.7 282.568 52.3C282.568 51.6867 282.448 51.1967 282.208 50.83C281.975 50.4633 281.611 50.28 281.118 50.28ZM286.95 49.54C287.41 49.54 287.804 49.64 288.13 49.84C288.464 50.04 288.717 50.3233 288.89 50.69C289.07 51.05 289.16 51.4733 289.16 51.96V52.49H285.49C285.504 53.0967 285.657 53.56 285.95 53.88C286.25 54.1933 286.667 54.35 287.2 54.35C287.54 54.35 287.84 54.32 288.1 54.26C288.367 54.1933 288.64 54.1 288.92 53.98V54.75C288.647 54.87 288.377 54.9567 288.11 55.01C287.844 55.07 287.527 55.1 287.16 55.1C286.654 55.1 286.204 54.9967 285.81 54.79C285.424 54.5833 285.12 54.2767 284.9 53.87C284.687 53.4567 284.58 52.9533 284.58 52.36C284.58 51.7733 284.677 51.27 284.87 50.85C285.07 50.43 285.347 50.1067 285.7 49.88C286.06 49.6533 286.477 49.54 286.95 49.54ZM286.94 50.26C286.52 50.26 286.187 50.3967 285.94 50.67C285.7 50.9367 285.557 51.31 285.51 51.79H288.24C288.24 51.4833 288.194 51.2167 288.1 50.99C288.007 50.7633 287.864 50.5867 287.67 50.46C287.484 50.3267 287.24 50.26 286.94 50.26ZM294.505 49.64V54.26H295.285V56.86H294.435V55H290.705V56.86H289.865V54.26H290.295C290.601 53.8333 290.855 53.37 291.055 52.87C291.261 52.3633 291.415 51.8367 291.515 51.29C291.621 50.7367 291.678 50.1867 291.685 49.64H294.505ZM292.465 50.33C292.438 50.7833 292.368 51.2533 292.255 51.74C292.141 52.22 291.995 52.68 291.815 53.12C291.641 53.56 291.438 53.94 291.205 54.26H293.655V50.33H292.465ZM297.215 49.64V51.87H300.125V49.64H301.005V55H300.125V52.61H297.215V55H296.335V49.64H297.215ZM303.533 52.91C303.533 52.97 303.529 53.0567 303.523 53.17C303.523 53.2767 303.519 53.3933 303.513 53.52C303.506 53.64 303.499 53.7567 303.493 53.87C303.486 53.9767 303.479 54.0633 303.473 54.13L306.343 49.64H307.423V55H306.603V51.84C306.603 51.7333 306.603 51.5933 306.603 51.42C306.609 51.2467 306.616 51.0767 306.623 50.91C306.629 50.7367 306.636 50.6067 306.643 50.52L303.793 55H302.703V49.64H303.533V52.91ZM313.468 47.42C313.442 47.7533 313.358 48.0333 313.218 48.26C313.085 48.4867 312.885 48.6567 312.618 48.77C312.352 48.8833 312.005 48.94 311.578 48.94C311.145 48.94 310.795 48.8833 310.528 48.77C310.268 48.6567 310.078 48.49 309.958 48.27C309.838 48.0433 309.765 47.76 309.738 47.42H310.558C310.592 47.78 310.685 48.0233 310.838 48.15C310.998 48.27 311.252 48.33 311.598 48.33C311.905 48.33 312.145 48.2667 312.318 48.14C312.498 48.0067 312.605 47.7667 312.638 47.42H313.468ZM309.958 52.91C309.958 52.97 309.955 53.0567 309.948 53.17C309.948 53.2767 309.945 53.3933 309.938 53.52C309.932 53.64 309.925 53.7567 309.918 53.87C309.912 53.9767 309.905 54.0633 309.898 54.13L312.768 49.64H313.848V55H313.028V51.84C313.028 51.7333 313.028 51.5933 313.028 51.42C313.035 51.2467 313.042 51.0767 313.048 50.91C313.055 50.7367 313.062 50.6067 313.068 50.52L310.218 55H309.128V49.64H309.958V52.91ZM318.99 51.59C318.99 51.9033 319.077 52.1367 319.25 52.29C319.43 52.4367 319.687 52.51 320.02 52.51C320.353 52.51 320.657 52.46 320.93 52.36C321.203 52.2533 321.483 52.1133 321.77 51.94V49.64H322.65V55H321.77V52.61C321.47 52.8033 321.173 52.9567 320.88 53.07C320.593 53.1767 320.247 53.23 319.84 53.23C319.293 53.23 318.867 53.0867 318.56 52.8C318.26 52.5133 318.11 52.13 318.11 51.65V49.64H318.99V51.59ZM326.423 49.54C326.883 49.54 327.276 49.64 327.603 49.84C327.936 50.04 328.19 50.3233 328.363 50.69C328.543 51.05 328.633 51.4733 328.633 51.96V52.49H324.963C324.976 53.0967 325.13 53.56 325.423 53.88C325.723 54.1933 326.14 54.35 326.673 54.35C327.013 54.35 327.313 54.32 327.573 54.26C327.84 54.1933 328.113 54.1 328.393 53.98V54.75C328.12 54.87 327.85 54.9567 327.583 55.01C327.316 55.07 327 55.1 326.633 55.1C326.126 55.1 325.676 54.9967 325.283 54.79C324.896 54.5833 324.593 54.2767 324.373 53.87C324.16 53.4567 324.053 52.9533 324.053 52.36C324.053 51.7733 324.15 51.27 324.343 50.85C324.543 50.43 324.82 50.1067 325.173 49.88C325.533 49.6533 325.95 49.54 326.423 49.54ZM326.413 50.26C325.993 50.26 325.66 50.3967 325.413 50.67C325.173 50.9367 325.03 51.31 324.983 51.79H327.713C327.713 51.4833 327.666 51.2167 327.573 50.99C327.48 50.7633 327.336 50.5867 327.143 50.46C326.956 50.3267 326.713 50.26 326.413 50.26ZM333.167 49.64H334.127L331.837 52.22L334.317 55H333.297L330.877 52.28V55H329.997V49.64H330.877V52.24L333.167 49.64Z" fill="#4F4F4F"/>
</svg>
