<svg width="173" height="134" viewBox="0 0 173 134" fill="none" xmlns="http://www.w3.org/2000/svg">
<circle cx="89.0634" cy="72.5634" r="60.5634" fill="#EEF7ED"/>
<circle cx="62.6784" cy="4.03756" r="4.03756" fill="#3629B7"/>
<circle cx="162.406" cy="27.8592" r="10.0939" fill="#FF4267"/>
<circle cx="148.275" cy="109.822" r="4.03756" fill="#0890FE"/>
<circle cx="42.4906" cy="109.822" r="8.07512" fill="#FFAF2A"/>
<circle cx="4.53756" cy="56.5258" r="4.03756" fill="#52D5BA"/>
<path d="M97.8355 67.285C97.3367 67.285 96.9112 66.8725 96.9112 66.3716V58.3271C96.9112 54.1134 93.5075 50.6952 89.3115 50.6952C85.1155 50.6952 81.7117 54.1281 81.7117 58.3271V66.3716C81.7117 66.8725 81.3009 67.285 80.7874 67.285H75.6818C75.1829 67.285 74.7722 66.8725 74.7722 66.3716V58.3271C74.7722 50.2679 81.3009 43.7116 89.3261 43.7116C97.3514 43.7116 103.88 50.2679 103.88 58.3271V66.3716C103.88 66.8725 103.469 67.285 102.956 67.285H97.8355Z" fill="#4FAE47"/>
<path d="M89.3262 44.6251C96.8379 44.6251 102.956 50.7689 102.956 58.3124V66.3568H97.8502V58.3124C97.8502 53.5977 94.0357 49.7523 89.3262 49.7523C84.6313 49.7523 80.8021 53.583 80.8021 58.3124V66.3568H75.6965V58.3124C75.6965 50.7689 81.7997 44.6251 89.3262 44.6251ZM89.3262 42.7981C80.8021 42.7981 73.8625 49.767 73.8625 58.3271V66.3716C73.8625 67.3882 74.6841 68.2133 75.6965 68.2133H80.8021C81.8144 68.2133 82.636 67.3882 82.636 66.3716V58.3271C82.636 54.6291 85.629 51.6087 89.3262 51.6087C93.0087 51.6087 96.0163 54.6291 96.0163 58.3271V66.3716C96.0163 67.3882 96.8379 68.2133 97.8502 68.2133H102.956C103.968 68.2133 104.79 67.3882 104.79 66.3716V58.3271C104.79 49.7523 97.8502 42.7981 89.3262 42.7981Z" fill="white"/>
<path d="M72.2781 100.848C71.0457 100.848 70.048 99.8459 70.048 98.6083V67.6828C70.048 66.4452 71.0457 65.4434 72.2781 65.4434H106.374C107.607 65.4434 108.604 66.4452 108.604 67.6828V98.5935C108.604 99.8311 107.607 100.833 106.374 100.833H72.2781V100.848Z" fill="#4FAE47"/>
<path d="M106.374 66.3716C107.093 66.3716 107.68 66.9609 107.68 67.6976V98.6083C107.68 99.3302 107.093 99.9343 106.374 99.9343H72.2781C71.5445 99.9343 70.9723 99.3449 70.9723 98.6083V67.6829C70.9723 66.9609 71.5592 66.3569 72.2781 66.3569H106.374V66.3716ZM106.374 64.5299H72.2781C70.5469 64.5299 69.1384 65.9443 69.1384 67.6829V98.5935C69.1384 100.332 70.5469 101.746 72.2781 101.746H106.374C108.106 101.746 109.514 100.332 109.514 98.5935V67.6829C109.514 65.9443 108.106 64.5299 106.374 64.5299Z" fill="white"/>
<path d="M106.374 66.3716H99.7135V90.7406C99.7135 91.4626 99.1267 92.0519 98.3931 92.0519H70.9576V98.5935C70.9576 99.3155 71.5445 99.9196 72.2634 99.9196H106.36C107.079 99.9196 107.665 99.3302 107.665 98.5935V67.6829C107.68 66.9609 107.093 66.3716 106.374 66.3716Z" fill="#4FAE47"/>
<path d="M106.374 66.3716H103.88V94.424C103.88 95.1607 103.293 95.7353 102.56 95.7353H70.9576V98.6083C70.9576 99.3302 71.5445 99.9343 72.2634 99.9343H106.36C107.079 99.9343 107.665 99.3449 107.665 98.6083V67.6829C107.68 66.9609 107.093 66.3716 106.374 66.3716Z" fill="#4FAE47"/>
<path d="M87.9699 86.6153C87.9699 86.3565 87.8101 86.1244 87.5683 86.0321C85.7208 85.3266 84.4194 83.536 84.4194 81.4439C84.4194 78.7385 86.6197 76.5432 89.3116 76.5432C92.017 76.5432 94.2037 78.7375 94.2037 81.4439C94.2037 83.536 92.9023 85.3266 91.0548 86.0321C90.813 86.1244 90.6532 86.3565 90.6532 86.6153V89.2084C90.6532 89.9564 90.05 90.5584 89.3116 90.5584C88.5731 90.5584 87.9699 89.9563 87.9699 89.2084V86.6153Z" fill="#4FAE47" stroke="white" stroke-width="1.2486" stroke-miterlimit="10" stroke-linecap="round" stroke-linejoin="round"/>
</svg>
