<svg width="103" height="47" viewBox="0 0 103 47" fill="none" xmlns="http://www.w3.org/2000/svg">
<mask id="mask0_30_21198" style="mask-type:luminance" maskUnits="userSpaceOnUse" x="0" y="0" width="103" height="47">
<path d="M103 0H0V47H103V0Z" fill="white"/>
</mask>
<g mask="url(#mask0_30_21198)">
<path d="M79.5923 24.6761H88.1649V26.2499H84.6622V35.3174H83.0916V26.2499H79.5889V24.6761H79.5923ZM70.1516 24.6761H75.7214C76.201 24.6761 76.6334 24.7956 77.0286 25.0311C77.4204 25.2701 77.7345 25.5876 77.971 25.9768C78.204 26.3728 78.3223 26.8132 78.3223 27.298V28.3598C78.3223 28.8445 78.2074 29.2815 77.9777 29.6707C77.7514 30.0599 77.4373 30.3672 77.0455 30.5993C76.6469 30.828 76.2078 30.9441 75.7147 30.9441L78.8559 35.3208H76.9543L73.813 30.9441H72.6072V29.3703H75.7248C76.0187 29.3703 76.2653 29.2713 76.4645 29.0698C76.6672 28.8684 76.7685 28.626 76.7685 28.3393V27.3014C76.7685 27.0112 76.6706 26.762 76.4645 26.5606C76.2653 26.3558 76.0187 26.2533 75.7248 26.2533H71.7188V35.3208H70.1583V24.6761H70.1516ZM63.1057 24.6761H65.0512L68.8241 35.3174H67.1589L66.0105 32.1117H63.0719L63.636 30.5447H65.4464L64.0852 26.7415L61.0047 35.3174H59.3395L63.1057 24.6761ZM48.3484 24.6761H49.7772L53.1752 28.8752L56.5732 24.6761H58.0019V35.3174H56.4414V27.3629L53.8305 30.5686H52.5334L49.9123 27.3629V35.3174H48.3518V24.6761H48.3484ZM37.8471 27.2502C37.8471 26.7757 37.962 26.3455 38.1984 25.9597C38.4348 25.5705 38.749 25.2565 39.1442 25.0277C39.5427 24.7922 39.9751 24.6795 40.4581 24.6795H45.903V26.2533H40.4581C40.171 26.2533 39.9244 26.3523 39.715 26.5606C39.5123 26.762 39.4076 27.0112 39.4076 27.3014V28.032C39.4076 28.2949 39.5123 28.5236 39.715 28.7114C39.9244 28.9026 40.1676 28.9982 40.4581 28.9982H43.8122C44.2952 28.9982 44.7343 29.1142 45.1261 29.3464C45.5247 29.5751 45.8354 29.8926 46.0719 30.2784C46.3049 30.671 46.4231 31.1046 46.4231 31.5791V32.7364C46.4231 33.2144 46.3049 33.6445 46.0719 34.0371C45.8354 34.4298 45.5213 34.7404 45.1261 34.976C44.7343 35.2047 44.2952 35.3208 43.8122 35.3208H37.8505V33.7436H43.8122C44.0993 33.7436 44.3458 33.6446 44.5553 33.4465C44.7579 33.2519 44.8626 33.013 44.8626 32.733V31.5859C44.8626 31.3094 44.7579 31.0704 44.5553 30.869C44.3458 30.6744 44.1026 30.572 43.8122 30.572H40.4581C39.9751 30.572 39.5394 30.4559 39.1442 30.2272C38.7456 30.0019 38.4348 29.698 38.1984 29.3088C37.962 28.9265 37.8471 28.5065 37.8471 28.0354V27.2502ZM95.4574 16.9366C95.4574 16.5304 95.5621 16.1651 95.7614 15.8373C95.9607 15.5062 96.2309 15.2433 96.5552 15.0521C96.8896 14.8575 97.2611 14.7619 97.6631 14.7619H102.169V16.3392H97.6631C97.4874 16.3392 97.3354 16.3972 97.207 16.5167C97.0854 16.6328 97.0179 16.7762 97.0179 16.9366V17.1244C97.0179 17.2951 97.0854 17.4385 97.207 17.558C97.3354 17.6775 97.4874 17.7355 97.6631 17.7355H100.463C100.868 17.7355 101.24 17.8345 101.571 18.0325C101.905 18.2339 102.172 18.4968 102.365 18.8211C102.564 19.1523 102.662 19.521 102.662 19.9204V20.3267C102.662 20.7227 102.564 21.0914 102.365 21.4226C102.172 21.7571 101.905 22.02 101.571 22.218C101.24 22.4126 100.872 22.515 100.463 22.515H95.8087V20.9378H100.463C100.642 20.9378 100.794 20.8763 100.916 20.7569C101.044 20.6374 101.105 20.494 101.105 20.3233V19.9375C101.105 19.76 101.044 19.6132 100.916 19.4937C100.794 19.3776 100.642 19.3162 100.463 19.3162H97.6631C97.2611 19.3162 96.8929 19.2206 96.5552 19.0192C96.2275 18.8246 95.9573 18.5583 95.7614 18.2271C95.5621 17.896 95.4574 17.5341 95.4574 17.1312V16.9366ZM86.699 16.9366C86.699 16.5304 86.7969 16.1651 87.003 15.8373C87.2023 15.5062 87.4657 15.2433 87.7967 15.0521C88.1311 14.8575 88.5027 14.7619 88.9046 14.7619H93.4105V16.3392H88.9046C88.729 16.3392 88.577 16.3972 88.452 16.5167C88.3237 16.6328 88.2629 16.7762 88.2629 16.9366V17.1244C88.2629 17.2951 88.3237 17.4385 88.452 17.558C88.5804 17.6775 88.7324 17.7355 88.9046 17.7355H91.7048C92.1067 17.7355 92.4749 17.8345 92.8126 18.0325C93.1437 18.2339 93.4139 18.4968 93.6064 18.8211C93.8057 19.1523 93.9037 19.521 93.9037 19.9204V20.3267C93.9037 20.7227 93.8057 21.0914 93.6064 21.4226C93.4139 21.7571 93.1437 22.02 92.8126 22.218C92.4782 22.4126 92.1067 22.515 91.7048 22.515H87.0503V20.9378H91.7048C91.8804 20.9378 92.0324 20.8763 92.1574 20.7569C92.2857 20.6374 92.3465 20.494 92.3465 20.3233V19.9375C92.3465 19.76 92.2857 19.6132 92.1574 19.4937C92.029 19.3776 91.877 19.3162 91.7048 19.3162H88.9046C88.5027 19.3162 88.1345 19.2206 87.7967 19.0192C87.4657 18.8246 87.1989 18.5583 87.003 18.2271C86.8003 17.896 86.699 17.5341 86.699 17.1312V16.9366ZM78.096 16.3597C78.096 15.9159 78.2581 15.5369 78.5756 15.2228C78.8965 14.9121 79.2815 14.7585 79.7308 14.7585H82.9328C83.3382 14.7585 83.7131 14.8575 84.0441 15.059C84.3751 15.2604 84.6453 15.5335 84.8446 15.8783C85.0439 16.2163 85.1419 16.5952 85.1419 17.0117V17.2268C85.1419 17.6365 85.0439 18.012 84.8446 18.3466C84.6453 18.6812 84.3751 18.9543 84.0441 19.1557C83.7131 19.3571 83.3382 19.4561 82.9328 19.4561H80.5448V17.8823H82.9497C83.1254 17.8823 83.2774 17.8208 83.4023 17.6911C83.5307 17.5614 83.5881 17.4043 83.5881 17.2234V17.0117C83.5881 16.8206 83.5307 16.6635 83.4023 16.527C83.274 16.3972 83.122 16.3358 82.9497 16.3358H79.6598V20.313C79.6598 20.4871 79.7173 20.6305 79.8287 20.7466C79.9436 20.8661 80.0787 20.9276 80.2408 20.9276H84.6048V22.5048H80.2408C79.849 22.5048 79.4876 22.4058 79.1633 22.2078C78.8357 22.0098 78.5756 21.7469 78.3864 21.4123C78.1939 21.0812 78.0993 20.7125 78.0993 20.3165V16.3597H78.096ZM69.2734 16.3289C69.2734 15.8954 69.4254 15.5267 69.7361 15.2194C70.0435 14.9122 70.4117 14.7619 70.8474 14.7619H73.5496C74.0562 14.7619 74.5223 14.8848 74.9412 15.1409C75.3634 15.3901 75.6944 15.7281 75.9444 16.1548C76.1943 16.5748 76.3193 17.0459 76.3193 17.5614V22.515H74.7588V17.5785C74.7588 17.2336 74.6405 16.9332 74.4075 16.6874C74.171 16.445 73.8873 16.3255 73.5529 16.3255H70.8373V22.515H69.2768V16.3289H69.2734ZM65.926 14.7585H67.4933V22.5116H65.926V14.7585ZM65.747 12.6487C65.747 12.3756 65.8382 12.1468 66.0308 11.9557C66.2165 11.7679 66.4428 11.6723 66.7063 11.6723C66.9765 11.6723 67.1995 11.7679 67.3886 11.9557C67.5778 12.1468 67.6723 12.3756 67.6723 12.6487C67.6723 12.9184 67.5778 13.1471 67.3886 13.3315C67.1995 13.5227 66.9765 13.6183 66.7063 13.6183C66.4428 13.6183 66.2131 13.5227 66.0308 13.3315C65.8382 13.1471 65.747 12.9184 65.747 12.6487ZM57.019 16.9366C57.019 16.5304 57.117 16.1651 57.3163 15.8373C57.5189 15.5062 57.7858 15.2433 58.1168 15.0521C58.4512 14.8575 58.8227 14.7619 59.2247 14.7619H63.7305V16.3392H59.2247C59.049 16.3392 58.897 16.3972 58.772 16.5167C58.6437 16.6328 58.5829 16.7762 58.5829 16.9366V17.1244C58.5829 17.2951 58.6437 17.4385 58.772 17.558C58.9004 17.6775 59.0524 17.7355 59.2247 17.7355H62.0248C62.4267 17.7355 62.7949 17.8345 63.1327 18.0325C63.4637 18.2339 63.7305 18.4968 63.9264 18.8211C64.1257 19.1523 64.2237 19.521 64.2237 19.9204V20.3267C64.2237 20.7227 64.1257 21.0914 63.9264 21.4226C63.7272 21.7571 63.4637 22.02 63.1327 22.218C62.7983 22.4126 62.4267 22.515 62.0248 22.515H57.3703V20.9378H62.0248C62.2004 20.9378 62.3524 20.8763 62.4774 20.7569C62.6058 20.6374 62.6666 20.494 62.6666 20.3233V19.9375C62.6666 19.76 62.6058 19.6132 62.4774 19.4937C62.3491 19.3776 62.1971 19.3162 62.0248 19.3162H59.2247C58.8227 19.3162 58.4545 19.2206 58.1168 19.0192C57.7858 18.8246 57.5189 18.5583 57.3163 18.2271C57.117 17.896 57.019 17.5341 57.019 17.1312V16.9366ZM48.2707 14.7585H49.8312V19.6883C49.8312 20.0365 49.9495 20.3335 50.1859 20.5793C50.4223 20.8217 50.7061 20.948 51.0371 20.948H53.7528V14.7585H55.3133V20.9378C55.3133 21.3714 55.1613 21.7401 54.8539 22.0507C54.5499 22.358 54.1784 22.5082 53.7359 22.5082H51.0337C50.5237 22.5082 50.0643 22.3853 49.6387 22.1293C49.2233 21.8766 48.8855 21.5352 48.6389 21.1153C48.389 20.6886 48.264 20.2209 48.264 19.7054V14.7585H48.2707ZM43.9743 20.9344C44.2614 20.9344 44.5046 20.8354 44.7073 20.6374C44.9065 20.4428 45.0112 20.2038 45.0112 19.9204V18.7426C45.0112 18.4661 44.9065 18.2271 44.7073 18.0257C44.5046 17.8311 44.258 17.7287 43.9642 17.7287H40.4446V16.1548H43.5352C43.829 16.1548 44.079 16.0592 44.2918 15.8681C44.5012 15.6769 44.6025 15.4413 44.6025 15.1682V14.4854C44.6025 14.1986 44.4978 13.9494 44.2918 13.7446C44.079 13.5397 43.829 13.4373 43.5352 13.4373H39.5562V20.931H43.9743V20.9344ZM37.9924 11.8703H43.5318C44.025 11.8703 44.4674 11.9864 44.8626 12.2185C45.2544 12.4541 45.572 12.7682 45.805 13.1608C46.0415 13.5568 46.1597 13.9972 46.1597 14.4854V15.1853C46.1597 15.8783 45.9604 16.4041 45.5618 16.7625C45.9165 16.9913 46.1732 17.2644 46.3286 17.5819C46.4839 17.9028 46.565 18.2954 46.565 18.7665V19.9443C46.565 20.412 46.4468 20.8422 46.2137 21.2314C45.9773 21.6172 45.6598 21.9313 45.268 22.1634C44.8761 22.399 44.437 22.5116 43.9574 22.5116H37.9924V11.8703Z" fill="#1E1E1E"/>
</g>
<mask id="mask1_30_21198" style="mask-type:luminance" maskUnits="userSpaceOnUse" x="0" y="0" width="103" height="47">
<path d="M103 0H0V47H103V0Z" fill="white"/>
</mask>
<g mask="url(#mask1_30_21198)">
<path d="M2.53991 41.5238C2.56356 42.2202 2.65476 44.3232 7.41733 44.3983H19.0434L20.4215 44.3301C23.5932 43.5824 25.4982 42.35 27.2175 39.9397C29.3151 36.9935 29.7339 32.371 28.2173 28.9468C27.8289 28.0728 27.3222 27.2876 26.7176 26.6184C24.924 24.6281 22.7994 23.9692 20.3405 23.2079L20.0331 23.1123L10.1263 20.0329C7.31939 19.118 5.94802 17.0047 6.03922 13.7478L6.00545 4.07948L18.4692 4.06924H18.4793C20.2155 4.13069 21.6915 4.50964 22.8602 5.19243C24.924 6.39756 26.14 8.66101 26.1062 11.2386C26.0927 12.3003 25.8461 13.3723 25.3631 14.4272L27.5519 15.0929C28.2713 13.9492 28.6767 12.6075 28.724 11.1805C28.805 8.86584 27.8626 6.37366 26.3156 4.83055C24.9781 3.48545 22.9649 2.74462 20.1648 2.5671H2.56356L2.57706 12.2184C2.51626 16.3322 3.81669 19.1965 6.55264 20.9752L20.202 25.5192C23.0359 26.4751 24.995 28.2196 26.0218 30.7084C26.5994 32.1081 26.8459 33.7161 26.7176 35.2285C26.5724 36.9115 25.9745 38.3761 24.9848 39.4652C23.4953 41.1107 21.0768 42.0291 17.6045 42.2783H17.5775L5.72848 42.2749L5.6778 30.961C4.66111 30.5343 3.62416 29.9812 2.53991 29.2779V41.5238ZM0.337637 24.3652C2.36764 26.8916 5.41434 28.6019 7.91723 29.3872V40.0319H16.4325C17.841 40.0319 18.7327 40.0319 20.1277 39.6768C22.9042 38.9804 24.1404 37.6524 24.3802 35.621C24.5896 33.8663 24.6639 32.0023 23.198 30.169C21.5362 28.0899 19.9622 27.8099 17.6045 27.0418L9.54191 24.3925C6.54588 23.4059 4.72192 23.1191 2.67165 20.405C1.09763 18.3191 0.391677 15.7279 0.334256 13.1231V0.341187H20.3776C26.7885 0.761104 28.9739 3.8166 30.1764 6.83113C31.3315 9.72958 31.4295 14.7174 28.2207 17.7592C26.6602 16.9638 23.9445 16.3151 21.9415 15.8747C23.8904 13.0582 24.6673 10.3851 22.9447 8.20354C22.0462 7.05986 20.6343 6.32928 18.6584 6.31903H8.20771V13.1231C8.22797 15.8815 8.3023 16.8238 10.6295 17.8343L20.5735 20.9479C23.2892 21.7945 24.8733 22.0198 27.1026 23.9317C31.3552 27.5948 31.541 32.2105 31.1964 35.3992C30.7742 39.2057 28.3423 44.1833 22.357 46.1395C20.9755 46.5935 20.3472 46.655 18.9252 46.655H7.17077C4.16122 46.515 1.23274 45.7332 0.469373 42.6675C0.34102 42.152 0.327515 41.7457 0.327515 41.2746V41.2473V40.8205V24.3652H0.337637Z" fill="#4FAE47"/>
</g>
</svg>
