
<svg width="25" height="24" viewBox="0 0 25 24" fill="none" xmlns="http://www.w3.org/2000/svg">
<path d="M18.8637 2.91016H6.13645C5.41313 2.91016 4.71944 3.19749 4.20798 3.70896C3.69652 4.22042 3.40918 4.91411 3.40918 5.63743V18.3647C3.40918 19.088 3.69652 19.7817 4.20798 20.2932C4.71944 20.8046 5.41313 21.092 6.13645 21.092H18.8637C19.587 21.092 20.2807 20.8046 20.7922 20.2932C21.3037 19.7817 21.591 19.088 21.591 18.3647V5.63743C21.591 4.91411 21.3037 4.22042 20.7922 3.70896C20.2807 3.19749 19.587 2.91016 18.8637 2.91016ZM17.0455 12.9102H13.4092V16.5465C13.4092 16.7876 13.3134 17.0189 13.1429 17.1893C12.9724 17.3598 12.7412 17.4556 12.5001 17.4556C12.259 17.4556 12.0278 17.3598 11.8573 17.1893C11.6868 17.0189 11.591 16.7876 11.591 16.5465V12.9102H7.95463C7.71353 12.9102 7.4823 12.8144 7.31181 12.6439C7.14132 12.4734 7.04554 12.2422 7.04554 12.0011C7.04554 11.76 7.14132 11.5287 7.31181 11.3582C7.4823 11.1878 7.71353 11.092 7.95463 11.092H11.591V7.45561C11.591 7.2145 11.6868 6.98327 11.8573 6.81279C12.0278 6.6423 12.259 6.54652 12.5001 6.54652C12.7412 6.54652 12.9724 6.6423 13.1429 6.81279C13.3134 6.98327 13.4092 7.2145 13.4092 7.45561V11.092H17.0455C17.2866 11.092 17.5179 11.1878 17.6884 11.3582C17.8589 11.5287 17.9546 11.76 17.9546 12.0011C17.9546 12.2422 17.8589 12.4734 17.6884 12.6439C17.5179 12.8144 17.2866 12.9102 17.0455 12.9102Z" fill="white"/>
<path d="M18.8636 22H6.13636C5.17194 22 4.24702 21.6169 3.56507 20.9349C2.88312 20.253 2.5 19.3281 2.5 18.3636V5.63636C2.5 4.67194 2.88312 3.74702 3.56507 3.06507C4.24702 2.38312 5.17194 2 6.13636 2H18.8636C19.8281 2 20.753 2.38312 21.4349 3.06507C22.1169 3.74702 22.5 4.67194 22.5 5.63636V18.3636C22.5 19.3281 22.1169 20.253 21.4349 20.9349C20.753 21.6169 19.8281 22 18.8636 22ZM6.13636 3.81818C5.65415 3.81818 5.19169 4.00974 4.85072 4.35072C4.50974 4.69169 4.31818 5.15415 4.31818 5.63636V18.3636C4.31818 18.8458 4.50974 19.3083 4.85072 19.6493C5.19169 19.9903 5.65415 20.1818 6.13636 20.1818H18.8636C19.3458 20.1818 19.8083 19.9903 20.1493 19.6493C20.4903 19.3083 20.6818 18.8458 20.6818 18.3636V5.63636C20.6818 5.15415 20.4903 4.69169 20.1493 4.35072C19.8083 4.00974 19.3458 3.81818 18.8636 3.81818H6.13636Z" fill="white"/>
</svg>
